<svg width="260" height="167" viewBox="0 0 260 167" fill="none" xmlns="http://www.w3.org/2000/svg">
<path opacity="0.35" d="M259.74 62.866C257.626 28.7114 236.169 1.38322 200.404 0.0484079C189.829 -0.345382 179.435 1.68366 169.557 5.39515C156.761 10.2043 145.682 18.7561 132.551 22.7777C114.241 28.3852 95.5794 26.4935 76.7289 26.9452C63.8755 27.2532 50.8311 28.6899 38.9905 33.7051C-10.4907 54.6404 -4.50878 118.984 11.5164 160.105C12.2933 162.099 13.1027 164.081 13.9446 166.053H233.631C250.871 134.432 261.854 97.0098 259.74 62.866Z" fill="#E0E0FF"/>
<path d="M68.2957 131.223H41.8066V166.054H68.2957V131.223Z" fill="#E0E0FF"/>
<path d="M114.101 118.636H87.4668V166.054H114.101V118.636Z" fill="#E0E0FF"/>
<path d="M160.579 103.303H132.695V166.053H160.579V103.303Z" fill="#E0E0FF"/>
<path d="M210.349 83.3418H181.148V166.054H210.349V83.3418Z" fill="#E0E0FF"/>
<path d="M43.1228 104.319L43.0391 99.1688C50.667 99.0422 71.4853 97.0711 95.6792 90.5237C113.409 85.7263 130.401 79.2486 146.185 71.273C165.884 61.3178 183.747 48.9847 199.275 34.6162L202.777 38.3996C186.871 53.1168 168.582 65.7417 148.417 75.9212C132.301 84.0578 114.957 90.6589 96.866 95.5431C66.0431 103.863 44.0466 104.306 43.1228 104.319Z" fill="#E0E0FF"/>
<path d="M206.03 46.8168L190.096 30.8828H206.03V46.8168Z" fill="#E0E0FF"/>
<path d="M170.481 48.8531L164.545 45.1985C164.496 44.9592 164.438 44.7199 164.373 44.4807C163.733 42.2518 162.272 40.3482 160.285 39.1531C158.298 37.9581 155.932 37.5604 153.664 38.0402C151.395 38.5201 149.392 39.8417 148.059 41.739C146.726 43.6362 146.162 45.9682 146.479 48.2651L142.227 53.4756C142.215 53.493 142.209 53.5135 142.209 53.5344C142.209 53.5554 142.215 53.5759 142.226 53.5935C142.238 53.6111 142.254 53.6249 142.273 53.6333C142.292 53.6417 142.314 53.6444 142.334 53.6408L147.831 51.9412C148.789 53.4422 150.163 54.6319 151.785 55.3651C153.407 56.0983 155.208 56.3434 156.967 56.0703C158.727 55.7972 160.368 55.0178 161.692 53.8273C163.016 52.6368 163.964 51.0866 164.422 49.366L170.415 49.0999C170.443 49.098 170.469 49.0873 170.491 49.0695C170.513 49.0516 170.528 49.0274 170.536 49.0002C170.543 48.9731 170.542 48.9443 170.532 48.9179C170.522 48.8916 170.504 48.8689 170.481 48.8531Z" fill="white"/>
<path d="M155.558 56.3454C154.412 56.3436 153.277 56.1293 152.209 55.7134C150.394 55.0069 148.843 53.7548 147.77 52.1296L142.39 53.7928C142.335 53.8094 142.277 53.8082 142.223 53.7892C142.17 53.7702 142.124 53.7345 142.092 53.6874C142.06 53.6403 142.045 53.5842 142.047 53.5274C142.05 53.4707 142.07 53.4162 142.106 53.3721L146.32 48.2218C146.016 45.8886 146.605 43.5269 147.969 41.6097C149.333 39.6924 151.371 38.3614 153.675 37.8832C155.978 37.405 158.378 37.815 160.392 39.031C162.406 40.247 163.886 42.1792 164.536 44.4405C164.594 44.6422 164.644 44.859 164.698 45.1015L170.571 48.7164C170.625 48.7495 170.667 48.7992 170.691 48.8579C170.714 48.9167 170.719 48.9815 170.703 49.0429C170.687 49.1043 170.652 49.159 170.602 49.1989C170.553 49.2388 170.492 49.2619 170.429 49.2647L164.548 49.5244C163.997 51.4859 162.82 53.2138 161.197 54.4451C159.574 55.6764 157.593 56.3437 155.555 56.3454H155.558ZM147.906 51.7508L147.972 51.8581C149.022 53.49 150.568 54.7416 152.382 55.4285C154.197 56.1155 156.184 56.2014 158.051 55.6737C159.551 55.2506 160.915 54.4427 162.006 53.3302C163.098 52.2176 163.88 50.8391 164.274 49.3312L164.306 49.2175L170.333 48.9503L164.412 45.3021L164.398 45.2335C164.344 44.9716 164.291 44.741 164.228 44.5274C163.568 42.2323 162.024 40.293 159.934 39.1356C157.845 37.9782 155.382 37.6973 153.086 38.3545C148.801 39.5841 146.033 43.8364 146.648 48.2454L146.658 48.3151L142.473 53.4301L147.906 51.7508Z" fill="#5254CF"/>
<path d="M158.063 46.414C158.063 46.0358 157.975 45.6627 157.805 45.3248C157.635 44.9869 157.388 44.6938 157.084 44.4689C156.78 44.2441 156.427 44.0938 156.054 44.0303C155.681 43.9669 155.298 43.9919 154.937 44.1034C154.575 44.2149 154.245 44.4098 153.973 44.6723C153.701 44.9348 153.494 45.2577 153.369 45.6148C153.245 45.972 153.206 46.3534 153.255 46.7284C153.305 47.1033 153.442 47.4613 153.656 47.7735C153.784 47.9611 153.851 48.183 153.85 48.4098V49.9013H157.447V48.4098C157.445 48.1854 157.511 47.9657 157.637 47.78C157.915 47.3787 158.063 46.9021 158.063 46.414Z" fill="white"/>
<path d="M157.605 50.0625H153.686V48.4101C153.688 48.2157 153.63 48.0255 153.52 47.865C153.255 47.4779 153.101 47.0257 153.074 46.5573C153.048 46.089 153.15 45.6223 153.369 45.2075C153.588 44.7928 153.916 44.4459 154.319 44.2042C154.721 43.9624 155.181 43.8351 155.65 43.8359C156.119 43.8368 156.579 43.9657 156.98 44.2089C157.381 44.452 157.709 44.8001 157.926 45.2156C158.144 45.6311 158.244 46.0982 158.216 46.5664C158.188 47.0347 158.032 47.4863 157.766 47.8726C157.659 48.0309 157.603 48.218 157.605 48.409V50.0625ZM154.008 49.7406H157.283V48.4101C157.28 48.1535 157.354 47.902 157.498 47.6891C157.757 47.3148 157.896 46.8699 157.896 46.4144C157.896 46.0613 157.814 45.7131 157.655 45.3977C157.496 45.0824 157.266 44.8088 156.982 44.5989C156.698 44.3891 156.368 44.2489 156.02 44.1897C155.672 44.1305 155.315 44.1539 154.978 44.258C154.641 44.3621 154.332 44.5441 154.078 44.7891C153.824 45.0342 153.631 45.3356 153.515 45.6689C153.399 46.0023 153.362 46.3583 153.409 46.7083C153.455 47.0582 153.583 47.3923 153.783 47.6837C153.929 47.8978 154.006 48.1511 154.005 48.4101L154.008 49.7406Z" fill="#5254CF"/>
<path d="M157.444 50.9238H153.848V52.2501H157.444V50.9238Z" fill="white"/>
<path d="M157.606 52.4118H153.688V50.7637H157.606V52.4118ZM154.009 52.0899H157.284V51.0856H154.009V52.0899Z" fill="#5254CF"/>
<path d="M154.789 45.3936C154.587 45.5374 154.441 45.7476 154.377 45.9877C154.314 46.2278 154.336 46.4826 154.441 46.708" fill="white"/>
<path d="M154.29 46.7705C153.975 45.9936 154.42 45.4432 154.7 45.2607L154.876 45.5301L154.788 45.3949L154.877 45.5301C154.852 45.5451 154.295 45.9281 154.588 46.6492L154.29 46.7705Z" fill="#5254CF"/>
<path d="M150.726 42.5066L150.539 42.7686L152.605 44.2442L152.792 43.9823L150.726 42.5066Z" fill="#5254CF"/>
<path d="M160.411 42.37L158.346 43.8457L158.533 44.1076L160.599 42.632L160.411 42.37Z" fill="#5254CF"/>
<path d="M155.515 40.0124L155.434 42.5498L155.755 42.5601L155.836 40.0227L155.515 40.0124Z" fill="#5254CF"/>
<path d="M92.2865 50.1914C91.1545 50.1899 90.0382 50.4578 89.0302 50.9731C88.0222 51.4885 87.1514 52.2363 86.4897 53.1549C85.828 54.0735 85.3944 55.1364 85.2249 56.2557C85.0554 57.375 85.1548 58.5186 85.5148 59.5919L82.4032 63.37C82.3927 63.3831 82.387 63.3994 82.3867 63.4161C82.3865 63.4329 82.3918 63.4493 82.4018 63.4628C82.4118 63.4762 82.426 63.486 82.4422 63.4906C82.4584 63.4951 82.4756 63.4942 82.4911 63.488L86.6758 61.739C87.4232 62.6913 88.4003 63.4379 89.5155 63.9087C90.6307 64.3795 91.8473 64.5591 93.051 64.4305C94.2546 64.3018 95.4058 63.8693 96.3964 63.1735C97.3869 62.4777 98.1843 61.5415 98.7136 60.4528C99.2428 59.3641 99.4866 58.1588 99.422 56.95C99.3574 55.7412 98.9865 54.5687 98.3441 53.5427C97.7018 52.5166 96.8092 51.6707 95.7501 51.0845C94.691 50.4983 93.5003 50.191 92.2898 50.1914H92.2865Z" fill="white"/>
<path d="M92.2864 64.6375C91.2004 64.6396 90.1277 64.398 89.1474 63.9306C88.1671 63.4632 87.3042 62.7819 86.6221 61.9368L82.5533 63.6396C82.5045 63.6595 82.4505 63.6626 82.3998 63.6484C82.3491 63.6342 82.3045 63.6036 82.2732 63.5613C82.2418 63.519 82.2254 63.4674 82.2266 63.4148C82.2278 63.3621 82.2465 63.3114 82.2797 63.2705L85.3345 59.5601C84.8669 58.0937 84.8749 56.517 85.3575 55.0555C85.8401 53.594 86.7725 52.3225 88.0213 51.4229C89.2702 50.5233 90.7715 50.0417 92.3107 50.0469C93.8498 50.0521 95.3478 50.5439 96.5906 51.4519C97.8333 52.36 98.7571 53.6377 99.2297 55.1025C99.7024 56.5672 99.6998 58.1439 99.2223 59.6071C98.7447 61.0703 97.8167 62.3449 96.571 63.2488C95.3252 64.1527 93.8256 64.6395 92.2864 64.6396V64.6375ZM86.7229 61.543L86.7991 61.6395C87.8797 63.0135 89.4363 63.9321 91.1613 64.2138C92.8864 64.4954 94.6544 64.1198 96.1158 63.1609C97.5773 62.2021 98.6259 60.7299 99.0543 59.0353C99.4828 57.3407 99.26 55.547 98.4299 54.0088C97.5998 52.4706 96.2228 51.2997 94.5712 50.7276C92.9195 50.1556 91.1134 50.2239 89.5097 50.9192C87.906 51.6144 86.6214 52.886 85.91 54.4825C85.1985 56.0791 85.1118 57.8845 85.6671 59.5418L85.6961 59.6255L82.7475 63.2072L86.7229 61.543Z" fill="#5254CF"/>
<path d="M90.0273 57.807L92.066 59.8993L94.5876 53.8369" fill="white"/>
<path d="M92.1242 60.1856L89.916 57.9194L90.1456 57.6941L92.0148 59.6126L94.443 53.7744L94.7391 53.8989L92.1242 60.1856Z" fill="#5254CF"/>
<path d="M236.654 63.799C236.654 65.7119 236.088 67.582 235.027 69.1737C233.966 70.7655 232.458 72.0077 230.692 72.744C228.927 73.4803 226.983 73.6778 225.105 73.3116C223.228 72.9454 221.501 72.0319 220.141 70.686C218.782 69.3402 217.851 67.6222 217.466 65.7484C217.081 63.8747 217.259 61.9289 217.978 60.1561C218.696 58.3833 219.923 56.8627 221.504 55.7858C223.085 54.709 224.95 54.124 226.862 54.1045C226.83 55.1592 226.798 56.3986 226.772 57.6336C225.561 57.6705 224.388 58.0633 223.399 58.7629C222.41 59.4626 221.649 60.438 221.211 61.5676C220.774 62.6971 220.678 63.9306 220.937 65.114C221.196 66.2974 221.798 67.3784 222.667 68.2218C223.537 69.0652 224.636 69.6338 225.827 69.8565C227.017 70.0792 228.247 69.9462 229.363 69.4741C230.479 69.0019 231.43 68.2115 232.1 67.2017C232.769 66.1918 233.125 65.0072 233.125 63.7958C233.126 63.1427 233.022 62.4937 232.815 61.8741L236.185 60.8193C236.499 61.7813 236.657 62.7871 236.654 63.799Z" fill="#E0E0FF"/>
<path d="M236.184 60.8225L232.815 61.8773C232.411 60.6425 231.628 59.5669 230.576 58.8046C229.524 58.0423 228.258 57.6324 226.959 57.6336C226.898 57.6336 226.833 57.6336 226.771 57.6336C226.797 56.3986 226.829 55.1592 226.862 54.1045C226.894 54.1045 226.927 54.1045 226.959 54.1045C229.01 54.1049 231.007 54.7553 232.665 55.9625C234.322 57.1696 235.554 58.8711 236.184 60.8225Z" fill="#CBCBFF"/>
<path d="M26.0849 149.757C30.2136 149.757 33.5605 146.41 33.5605 142.281C33.5605 138.153 30.2136 134.806 26.0849 134.806C21.9563 134.806 18.6094 138.153 18.6094 142.281C18.6094 146.41 21.9563 149.757 26.0849 149.757Z" fill="#CBCBFF"/>
<path d="M14.1884 131.67C16.3603 131.67 18.1209 129.909 18.1209 127.737C18.1209 125.565 16.3603 123.805 14.1884 123.805C12.0165 123.805 10.2559 125.565 10.2559 127.737C10.2559 129.909 12.0165 131.67 14.1884 131.67Z" fill="#CBCBFF"/>
<path d="M30.2841 121.268C32.456 121.268 34.2166 119.508 34.2166 117.336C34.2166 115.164 32.456 113.403 30.2841 113.403C28.1122 113.403 26.3516 115.164 26.3516 117.336C26.3516 119.508 28.1122 121.268 30.2841 121.268Z" fill="#CBCBFF"/>
<path d="M227.371 134.055C231.766 134.055 235.329 130.491 235.329 126.096C235.329 121.701 231.766 118.138 227.371 118.138C222.975 118.138 219.412 121.701 219.412 126.096C219.412 130.491 222.975 134.055 227.371 134.055Z" fill="#CBCBFF"/>
<path d="M236.546 106.941C238.448 105.04 238.448 101.957 236.546 100.055C234.644 98.1534 231.561 98.1534 229.66 100.055C227.758 101.957 227.758 105.04 229.66 106.941C231.561 108.843 234.644 108.843 236.546 106.941Z" fill="#CBCBFF"/>
<path d="M135.107 57.7031C135.233 57.7654 137.009 59.7289 136.23 60.1024C135.451 60.4758 134.391 60.317 134.391 60.317L135.107 57.7031Z" fill="#D28572"/>
<path d="M127.299 61.8848L125.141 68.2326L130.87 71.2499L132.355 62.7947L127.302 61.8848H127.299Z" fill="#FFBC96"/>
<path d="M132.241 63.0861L131.49 67.5927C130.32 66.0862 129.416 64.3908 128.816 62.5796L129.877 62.5195L132.241 63.0861Z" fill="#D28572"/>
<path d="M135.071 54.7854C135.071 54.7854 136.359 63.6913 133.891 64.3566C131.423 65.0218 127.305 61.8887 127.305 61.8887L128.54 54.485L132.142 53.3047L135.071 54.7854Z" fill="#FFBC96"/>
<path d="M135.075 54.7853C135.075 54.7853 132.76 53.8593 131.212 57.8219L130.44 59.1588L126.633 58.7479L127.25 53.9108L130.594 52.2638C130.594 52.2638 134.355 49.7433 135.075 54.7853Z" fill="#1D2F6F"/>
<path d="M130.751 52.7786C130.751 52.7786 128.813 51.389 125.725 54.4771C122.637 57.5652 124.217 63.7049 127.51 63.6362C130.719 63.5686 129.825 60.3936 129.619 59.8281C129.413 59.2627 130.751 52.7786 130.751 52.7786Z" fill="#1D2F6F"/>
<path d="M131.171 60.3457C131.88 59.9362 132.076 58.9486 131.609 58.1398C131.142 57.331 130.189 57.0073 129.48 57.4168C128.77 57.8263 128.574 58.8139 129.041 59.6227C129.508 60.4315 130.461 60.7552 131.171 60.3457Z" fill="#FFBC96"/>
<path d="M130.747 59.5232C130.747 59.5232 130.741 58.9867 130.419 58.6906C130.326 58.6134 130.217 58.5568 130.101 58.5245C129.984 58.4921 129.862 58.4847 129.743 58.5028L129.713 58.1809C129.878 58.1571 130.045 58.169 130.205 58.2158C130.365 58.2627 130.512 58.3433 130.638 58.4524C131.067 58.8419 131.067 59.4932 131.067 59.5254L130.747 59.5232Z" fill="#1D2F6F"/>
<path opacity="0.4" d="M133.132 61.0236C133.814 61.0236 134.366 60.4711 134.366 59.7896C134.366 59.1081 133.814 58.5557 133.132 58.5557C132.451 58.5557 131.898 59.1081 131.898 59.7896C131.898 60.4711 132.451 61.0236 133.132 61.0236Z" fill="#1D2F6F"/>
<path d="M125.447 56.0192C125.869 54.5433 125.014 53.0053 123.538 52.5841C122.062 52.1628 120.524 53.0178 120.103 54.4937C119.681 55.9696 120.536 57.5075 122.012 57.9288C123.488 58.35 125.026 57.4951 125.447 56.0192Z" fill="#1D2F6F"/>
<path d="M128.294 159.727C127.834 157.992 127.528 154.933 127.528 154.933L121.646 155.295L121.79 159.104C123.272 160.062 126.169 161.63 129.256 161.649C128.813 161.077 128.486 160.424 128.294 159.727Z" fill="#D28572"/>
<path d="M132.923 165.004C132.182 164.197 130.424 163.203 129.253 161.649C126.166 161.63 123.269 160.062 121.787 159.104L122.046 165.972H123.214L123.858 162.708C123.858 162.708 127.766 165.85 130.511 166.011C133.255 166.172 133.366 165.488 132.923 165.004Z" fill="#1D2F6F"/>
<path d="M118.906 99.4043C117.538 100.593 119.993 143.638 120.838 156.689L128.935 156.569L127.605 101.095L118.906 99.4043Z" fill="#1D2F6F"/>
<path d="M133.729 159.727C133.27 157.992 132.964 154.933 132.964 154.933L127.082 155.295L127.226 159.104C128.708 160.062 131.606 161.63 134.692 161.649C134.249 161.076 133.922 160.424 133.729 159.727Z" fill="#FFBC96"/>
<path d="M138.367 165.004C137.627 164.197 135.867 163.203 134.696 161.649C131.61 161.63 128.712 160.062 127.23 159.104L127.49 165.972H128.659L129.302 162.708C129.302 162.708 133.21 165.85 135.955 166.011C138.7 166.172 138.806 165.488 138.367 165.004Z" fill="#1D2F6F"/>
<path d="M121.564 100.129L126.135 156.682L134.612 156.93C134.612 156.93 134.975 111.367 133.041 100.853L121.564 100.129Z" fill="#5254CF"/>
<path d="M133.892 127.678C133.873 127.679 133.854 127.679 133.834 127.678L132.991 127.608L133.017 127.286L133.861 127.357C133.911 127.362 133.96 127.357 134.008 127.343C134.055 127.328 134.099 127.304 134.137 127.272C134.175 127.24 134.205 127.2 134.227 127.155C134.249 127.111 134.261 127.062 134.264 127.013C134.266 126.963 134.259 126.914 134.241 126.867C134.224 126.821 134.197 126.779 134.163 126.743C134.128 126.707 134.087 126.679 134.041 126.66C133.995 126.641 133.946 126.631 133.897 126.631L131.178 126.589V126.267L133.898 126.31C134.075 126.318 134.242 126.394 134.364 126.523C134.486 126.651 134.553 126.822 134.552 126.999C134.551 127.176 134.481 127.346 134.357 127.473C134.233 127.6 134.065 127.674 133.888 127.68L133.892 127.678Z" fill="#1D2F6F"/>
<path d="M125.715 66.6931L126.278 64.1748C126.278 64.1748 128.999 65.4442 130.73 66.7747C131.091 67.0519 131.39 67.4026 131.605 67.8036C131.821 68.2046 131.949 68.6468 131.981 69.1009L132.14 71.366L127.311 70.0366L125.715 66.6931Z" fill="#FED3D1"/>
<path d="M156.127 94.6903C153.397 94.5562 151.393 93.5937 149.842 92.1151L149.762 87.9658L156.852 88.5302L158.825 90.3833L156.127 94.6903Z" fill="#D28572"/>
<path d="M139.25 93.5223C139.25 93.5223 142.272 92.8377 142.553 87.0371L139.894 89.1316L139.25 93.5223Z" fill="#1D2F6F"/>
<path d="M125.714 66.6924L130.105 68.965C130.899 69.3746 131.593 69.9531 132.139 70.6597C132.685 71.3664 133.07 72.184 133.266 73.0553C134.506 78.578 136.743 91.5205 134.496 105.608C134.496 105.608 125.432 105.326 116.73 100.129L120.138 74.3611C120.434 72.1256 121.569 70.0864 123.314 68.6581L125.714 66.6924Z" fill="#1D2F6F"/>
<path d="M139.975 86.915L147.915 87.267C148.724 87.299 149.514 87.5144 150.227 87.8968C151.358 88.5147 152.419 89.2521 153.392 90.0965C153.675 90.3433 153.864 90.6804 153.927 91.0508C153.991 91.4212 153.924 91.802 153.738 92.1287C153.639 92.3039 153.509 92.4593 153.353 92.5869L152.387 93.3799C152.305 93.4474 152.216 93.5067 152.122 93.5569L150.738 94.2951C150.53 94.4082 150.298 94.4727 150.061 94.484C149.366 94.5149 148.672 94.3924 148.029 94.1252C147.387 93.8579 146.811 93.4526 146.342 92.9378L136.189 91.7897L137.882 87.9827L139.975 86.915Z" fill="#FFBC96"/>
<path d="M156.855 88.5259L152.065 86.9475C151.834 86.8716 151.587 86.8575 151.348 86.9067C150.208 87.1417 146.85 87.9207 147.428 88.8274C147.857 89.4926 151.214 88.4454 151.214 88.4454L156.855 88.5259Z" fill="#D28572"/>
<path d="M145.313 93.298C145.242 93.2503 145.182 93.189 145.135 93.1178C145.088 93.0465 145.056 92.9668 145.04 92.883C145.025 92.7993 145.026 92.7133 145.044 92.63C145.061 92.5467 145.096 92.4677 145.144 92.3977L145.875 91.3247C145.922 91.2543 145.984 91.194 146.055 91.1474C146.126 91.1007 146.206 91.0687 146.289 91.053C146.373 91.0373 146.459 91.0384 146.542 91.0561C146.625 91.0738 146.704 91.1079 146.774 91.1563C146.844 91.2039 146.905 91.265 146.952 91.3361C146.998 91.4072 147.03 91.4869 147.046 91.5705C147.062 91.6541 147.061 91.74 147.043 91.8233C147.026 91.9065 146.992 91.9854 146.943 92.0554L146.213 93.1284C146.165 93.1991 146.104 93.2596 146.033 93.3064C145.962 93.3533 145.882 93.3855 145.798 93.4013C145.714 93.417 145.628 93.416 145.545 93.3983C145.462 93.3806 145.383 93.3465 145.313 93.298Z" fill="#D28572"/>
<path d="M146.234 93.8354C146.164 93.7877 146.103 93.7264 146.057 93.6552C146.01 93.584 145.978 93.5042 145.962 93.4205C145.946 93.3367 145.948 93.2507 145.965 93.1674C145.983 93.0841 146.017 93.0052 146.066 92.9352L147.041 91.5081C147.089 91.4376 147.15 91.3772 147.221 91.3304C147.292 91.2837 147.372 91.2515 147.456 91.2358C147.539 91.22 147.625 91.221 147.708 91.2386C147.792 91.2562 147.87 91.2902 147.94 91.3385C148.011 91.3862 148.072 91.4473 148.118 91.5185C148.165 91.5897 148.198 91.6695 148.213 91.7532C148.229 91.837 148.228 91.923 148.21 92.0064C148.193 92.0897 148.159 92.1687 148.11 92.2388L147.135 93.6659C147.087 93.7365 147.026 93.797 146.955 93.8439C146.883 93.8907 146.804 93.9229 146.72 93.9387C146.636 93.9545 146.55 93.9535 146.467 93.9357C146.383 93.918 146.304 93.8839 146.234 93.8354Z" fill="#D28572"/>
<path d="M147.35 94.3509C147.279 94.3032 147.219 94.2421 147.172 94.171C147.125 94.0999 147.093 94.0202 147.078 93.9366C147.062 93.853 147.063 93.7671 147.08 93.6839C147.098 93.6006 147.132 93.5217 147.18 93.4517L147.911 92.3787C147.959 92.308 148.02 92.2475 148.091 92.2007C148.162 92.1539 148.242 92.1216 148.326 92.1058C148.409 92.0901 148.496 92.0911 148.579 92.1088C148.662 92.1266 148.741 92.1607 148.811 92.2092C148.882 92.2568 148.942 92.318 148.989 92.3891C149.036 92.4603 149.068 92.5401 149.084 92.6239C149.1 92.7076 149.099 92.7936 149.081 92.877C149.063 92.9603 149.029 93.0393 148.981 93.1094L148.249 94.1824C148.201 94.2528 148.14 94.3131 148.069 94.3597C147.998 94.4064 147.918 94.4385 147.835 94.4541C147.751 94.4698 147.665 94.4687 147.582 94.451C147.499 94.4333 147.42 94.3992 147.35 94.3509Z" fill="#D28572"/>
<path d="M149.521 93.1275L149.482 93.1008C149.234 92.9313 148.896 92.9951 148.726 93.2431L148.205 94.0069C148.035 94.2549 148.099 94.5934 148.347 94.7629L148.386 94.7896C148.634 94.959 148.972 94.8953 149.142 94.6472L149.664 93.8835C149.833 93.6354 149.769 93.2969 149.521 93.1275Z" fill="#D28572"/>
<path d="M129.579 71.2847C129.579 71.2847 132.399 69.6752 133.12 85.2229L142.546 87.0363C140.998 88.9394 139.872 91.1501 139.244 93.5215L131.216 92.6631C130.096 92.5443 129.043 92.0701 128.212 91.31C127.221 90.4044 126.613 89.1556 126.509 87.8174L125.461 74.1903L129.579 71.2847Z" fill="#1D2F6F"/>
<path d="M139.374 93.6967L130.839 92.8254C129.562 92.6949 128.375 92.1093 127.495 91.1756C126.614 90.2419 126.1 89.0226 126.044 87.7405L125.615 77.7885L125.937 77.7745L126.366 87.7266C126.418 88.9315 126.902 90.0776 127.73 90.955C128.557 91.8324 129.673 92.3825 130.873 92.5046L139.126 93.348C139.931 89.9917 141.654 87.8092 142.238 87.1396L132.982 85.3595L131.341 74.3001L131.663 74.2529L133.272 85.0902L142.885 86.939L142.671 87.1536C142.648 87.1761 140.341 89.5142 139.411 93.5615L139.374 93.6967Z" fill="#1D2F6F"/>
<path d="M127.033 95.4421L126.961 95.7559L132.255 96.9721L132.327 96.6584L127.033 95.4421Z" fill="#1D2F6F"/>
<path d="M153.431 92.515L152.428 90.7199L151.438 90.2242L151.534 90.0332L152.582 90.5568L153.618 92.4099L153.431 92.515Z" fill="#D28572"/>
<path d="M151.333 91.4329L151.148 91.543L152.29 93.4522L152.474 93.3421L151.333 91.4329Z" fill="#D28572"/>
<path d="M150.02 92.1575L149.836 92.2676L150.977 94.1768L151.161 94.0667L150.02 92.1575Z" fill="#D28572"/>
<path d="M170.671 155.401L170.59 161.524L163.822 165.955H176.633L177.117 154.595L170.671 155.401Z" fill="#1D2F6F"/>
<path d="M170.72 161.356L170.469 161.704L172.581 163.23L172.832 162.882L170.72 161.356Z" fill="#FEFEFE"/>
<path d="M197.46 152.822L198.91 160.678L203.502 165.955H193.955L192.102 154.595L197.46 152.822Z" fill="#1D2F6F"/>
<path d="M198.755 160.56L197.154 162.359L197.475 162.645L199.076 160.845L198.755 160.56Z" fill="#FEFEFE"/>
<path d="M171.798 97.7111C171.798 97.7111 167.849 113.664 169.058 156.447H178.243C178.243 156.447 180.661 120.673 184.044 96.5029L171.798 97.7111Z" fill="#5254CF"/>
<path d="M192.665 96.2607L199.876 155.359L190.408 156.93L178.996 96.3798L192.665 96.2607Z" fill="#5254CF"/>
<path d="M183.988 123.591L181.432 108.966L178.395 108.413L178.452 108.097L181.71 108.689L181.729 108.799L184.305 123.536L183.988 123.591Z" fill="#1D2F6F"/>
<path d="M169.651 132.794C169.507 132.794 169.369 132.74 169.263 132.644C169.156 132.547 169.089 132.414 169.075 132.272C169.061 132.126 169.102 131.981 169.191 131.864C169.279 131.748 169.408 131.669 169.551 131.643L172.199 131.174L172.255 131.496L169.607 131.965C169.541 131.976 169.483 132.013 169.444 132.067C169.404 132.121 169.388 132.188 169.397 132.254C169.406 132.32 169.441 132.38 169.494 132.421C169.546 132.462 169.613 132.481 169.679 132.474L170.816 132.357L170.85 132.679L169.711 132.797C169.691 132.797 169.671 132.796 169.651 132.794Z" fill="#1D2F6F"/>
<path d="M186.179 132.166C186.034 132.165 185.896 132.11 185.79 132.012C185.684 131.913 185.618 131.779 185.606 131.636C185.593 131.492 185.635 131.349 185.722 131.234C185.81 131.119 185.937 131.041 186.079 131.015L188.727 130.547L188.784 130.869L186.135 131.338C186.07 131.349 186.012 131.383 185.972 131.435C185.932 131.487 185.914 131.553 185.92 131.618C185.923 131.652 185.933 131.684 185.949 131.714C185.965 131.744 185.987 131.771 186.014 131.792C186.04 131.813 186.07 131.829 186.103 131.839C186.135 131.849 186.169 131.852 186.203 131.848L187.341 131.73L187.374 132.052L186.235 132.169C186.216 132.169 186.197 132.168 186.179 132.166Z" fill="#1D2F6F"/>
<path d="M180.88 65.5557L172.683 86.5939L171.797 97.7123L189.441 98.9205L186.871 65.7252L180.88 65.5557Z" fill="white"/>
<path opacity="0.2" d="M172.133 84.1125C173.474 84.2032 174.822 84.098 176.133 83.8003C177.422 83.511 178.67 83.0615 179.848 82.4623C180.418 82.1318 181.013 81.8389 181.544 81.4397C181.814 81.2487 182.106 81.0856 182.362 80.8732C182.617 80.6607 182.878 80.4536 183.143 80.2487C183.406 80.0447 183.657 79.8246 183.894 79.5899L184.645 78.9096C185.125 78.4353 185.577 77.9321 186.082 77.46C185.731 78.0447 185.361 78.6274 184.96 79.1886L184.298 79.9837C184.083 80.2553 183.847 80.51 183.592 80.7455C182.627 81.7423 181.466 82.5481 180.24 83.2252C178.988 83.8588 177.637 84.2756 176.246 84.4581C174.863 84.6287 173.434 84.5664 172.133 84.1125Z" fill="#1D2F6F"/>
<path d="M180.88 65.5557C180.88 65.5557 177.493 70.4915 174.243 106.341C174.239 106.386 174.223 106.429 174.197 106.466C174.171 106.503 174.136 106.532 174.095 106.551C174.054 106.57 174.009 106.578 173.964 106.574C173.92 106.57 173.877 106.555 173.84 106.529L168.453 102.666L173.166 71.969L180.88 65.5557Z" fill="#1D2F6F"/>
<path d="M180.881 65.5557L173.728 67.501C173.189 67.6473 172.697 67.9315 172.301 68.3257C171.905 68.7198 171.618 69.2103 171.469 69.7489L166.763 86.7141L156.852 88.5275L156.127 94.6908L168.987 94.0877C169.73 94.0529 170.44 93.7687 171.003 93.2808C171.565 92.793 171.946 92.13 172.086 91.3988L175.585 73.0581L180.881 65.5557Z" fill="#1D2F6F"/>
<path d="M186.873 65.7246C186.873 65.7246 183.11 91.659 183.217 106.466L195.02 105.93L195.043 81.0363L186.873 65.7246Z" fill="#1D2F6F"/>
<path d="M197.208 90.2557L180.273 88.008C180.008 87.9728 179.764 88.1591 179.729 88.4241L178.055 101.038C178.02 101.303 178.206 101.546 178.471 101.582L195.407 103.829C195.672 103.864 195.915 103.678 195.95 103.413L197.625 90.7991C197.66 90.5341 197.473 90.2908 197.208 90.2557Z" fill="#CBCBFF"/>
<path d="M188.786 96.9214H188.764L186.588 96.6328C186.545 96.6257 186.506 96.6022 186.48 96.5673C186.467 96.5497 186.457 96.5295 186.451 96.5079C186.445 96.4864 186.444 96.4638 186.447 96.4418L186.662 94.8215C186.669 94.7787 186.692 94.7403 186.727 94.7142C186.763 94.6874 186.808 94.6755 186.853 94.681L189.028 94.9696C189.072 94.9758 189.113 94.9993 189.14 95.0351C189.154 95.0527 189.164 95.0729 189.17 95.0944C189.175 95.116 189.177 95.1385 189.174 95.1606L188.959 96.7808C188.953 96.8216 188.933 96.859 188.902 96.886C188.871 96.9131 188.832 96.9279 188.79 96.9278L188.786 96.9214ZM186.662 96.4246L188.748 96.7014L188.95 95.1703L186.864 94.8934L186.662 96.4246Z" fill="white"/>
<path d="M190.572 95.209L190.053 95.9504C189.703 96.4537 189.201 96.8319 188.621 97.0299C187.447 97.4269 185.039 98.178 185.361 98.9205C185.546 99.3497 187.787 98.766 187.787 98.766C187.787 98.766 185.197 101.821 186.28 102.749C186.581 103.008 187.094 103.22 187.687 103.357C188.369 103.504 189.074 103.52 189.763 103.406C190.304 103.321 190.798 103.048 191.158 102.635C191.611 102.118 192.014 101.56 192.363 100.968C193.465 99.0739 194.086 97.5878 194.362 96.6007L190.572 95.209Z" fill="#D28572"/>
<path d="M186.875 65.7246L192.192 66.9049C192.909 67.0636 193.576 67.3962 194.134 67.8736C194.692 68.351 195.124 68.9583 195.391 69.6421L200.723 81.929C201.123 82.8513 201.301 83.8548 201.241 84.8584C201.182 85.8619 200.887 86.8374 200.381 87.706L194.36 98.0368L189.687 95.5389L194.118 84.4205L186.875 65.7246Z" fill="#1D2F6F"/>
<path d="M183.487 69.5068C181.844 69.5068 180.631 68.5497 180.615 68.5411L180.817 68.29C180.838 68.3072 182.983 69.994 185.36 68.7042L185.513 68.9864C184.893 69.3281 184.195 69.5071 183.487 69.5068Z" fill="#1D2F6F"/>
<path d="M172.533 73.0667L168.293 102.639L168.612 102.684L172.852 73.1124L172.533 73.0667Z" fill="#5254CF"/>
<path d="M189.83 95.5982L189.535 95.4727L194.557 83.718L190.793 74.767L191.089 74.6426L194.907 83.718L189.83 95.5982Z" fill="#5254CF"/>
<path d="M187.642 101.016L186.426 102.804L186.603 102.924L187.819 101.137L187.642 101.016Z" fill="#925D4F"/>
<path d="M188.784 101.552L187.568 103.34L187.746 103.461L188.962 101.673L188.784 101.552Z" fill="#925D4F"/>
<path d="M190.465 101.579L189.248 103.367L189.425 103.488L190.642 101.699L190.465 101.579Z" fill="#925D4F"/>
<path d="M179.201 55.5254C179.201 55.5254 176.563 57.7862 177.391 58.5394C178.22 59.2927 179.351 59.444 179.351 59.444L179.201 55.5254Z" fill="#925D4F"/>
<path d="M187.042 58.1504L186.874 65.7258C183.879 68.8374 180.883 65.5541 180.883 65.5541L181.097 64.0004L181.192 63.3094L181.621 60.2148L181.728 59.3951L184.853 58.6654L187.042 58.1504Z" fill="#D28572"/>
<path d="M185.149 59.8463C185.149 59.8463 184.162 61.7992 181.098 64.001L181.192 63.3099L181.621 60.2154L184.832 59.5244L185.149 59.8463Z" fill="#925D4F"/>
<path d="M179.054 52.887C179.054 52.887 177.321 62.2307 179.657 62.0805C181.993 61.9303 186.364 59.5182 186.364 59.5182L186.891 55.0717L184.934 52.1338L181.543 52.2089L179.054 52.887Z" fill="#D28572"/>
<path d="M184.414 57.4301C184.414 57.4301 186.393 60.8498 187.382 60.7371C188.371 60.6244 190.152 54.2991 187.975 51.666C185.799 49.0328 180.854 50.535 180.458 50.535C180.062 50.535 177.858 50.4782 176.361 50.4503C176.361 50.4503 177.576 54.944 182.549 53.5866C182.549 53.5866 183.143 55.7627 184.329 56.046L184.414 57.4301Z" fill="#1D2F6F"/>
<path d="M185.727 57.0174C186.035 56.1163 185.691 55.1825 184.957 54.9319C184.224 54.6812 183.379 55.2084 183.071 56.1096C182.763 57.0107 183.108 57.9444 183.842 58.1951C184.575 58.4458 185.419 57.9185 185.727 57.0174Z" fill="#D28572"/>
<path opacity="0.3" d="M180.886 59.0665C181.582 59.0665 182.147 58.502 182.147 57.8057C182.147 57.1094 181.582 56.5449 180.886 56.5449C180.189 56.5449 179.625 57.1094 179.625 57.8057C179.625 58.502 180.189 59.0665 180.886 59.0665Z" fill="#1D2F6F"/>
<path d="M183.787 57.5215C183.787 57.4979 183.648 56.9356 183.959 56.4657C184.158 56.1652 184.487 55.9753 184.937 55.9023L184.988 56.2242C184.631 56.2822 184.376 56.4249 184.228 56.6481C184.087 56.8897 184.041 57.1751 184.1 57.4485L183.787 57.5215Z" fill="#1D2F6F"/>
<path d="M78.6604 124.663L70.5625 121.561C71.4574 126.332 71.9381 154.141 72.0046 158.269L77.6293 159.333C78.5799 146.216 78.6604 124.663 78.6604 124.663Z" fill="#FFBC96"/>
<path d="M83.3318 165.432C80.8327 162.41 79.7447 163.378 77.6105 159.424C77.6105 159.394 77.6213 159.359 77.6266 159.328L72.002 158.264C72.0073 158.597 72.0106 158.779 72.0106 158.779L71.8496 166.03H73.3797L74.266 162.767L77.9324 166.03H82.9401C83.2513 166.035 83.5346 165.672 83.3318 165.432Z" fill="#1D2F6F"/>
<path d="M69.3074 124.462L61.7417 120.226C61.9391 125.076 58.4047 152.663 57.8789 156.758L63.2922 158.622C66.1195 145.778 69.3074 124.462 69.3074 124.462Z" fill="#FFBC96"/>
<path d="M68.0547 165.482C66.016 162.131 64.8025 162.931 63.2584 158.722C63.2692 158.693 63.2788 158.659 63.2896 158.629L57.8763 156.766C57.8344 157.096 57.8108 157.276 57.8108 157.276L56.6016 164.421L58.1166 164.643L59.4632 161.54L62.9408 165.955L67.5773 166.02C67.8884 166.065 68.2157 165.746 68.0547 165.482Z" fill="#1D2F6F"/>
<path d="M60.6539 98.9197C60.6539 98.9197 58.9618 114.026 61.3792 125.146C61.3792 125.146 70.4439 128.043 78.662 124.662C78.662 124.662 79.3863 100.853 76.1233 97.2275L60.6539 98.9197Z" fill="#1D2F6F"/>
<path d="M69.8019 122.614C66.9571 122.603 64.1167 122.388 61.3027 121.97L61.3542 121.648C61.4615 121.666 72.4383 123.437 78.7604 121.013L78.8763 121.313C76.2678 122.316 72.8933 122.614 69.8019 122.614Z" fill="#5254CF"/>
<path d="M70.0731 105.628C69.9744 104.891 69.1074 98.4187 69.1074 98.0957H69.4293C69.4293 98.3243 70.0055 102.7 70.395 105.585L70.0731 105.628Z" fill="#5254CF"/>
<path d="M77.0992 130.824C77.0638 130.824 76.2408 130.816 75.7515 130.207C75.7063 130.157 75.6771 130.095 75.6675 130.029C75.6579 129.962 75.6685 129.895 75.6979 129.834C75.788 129.654 76.0455 129.48 77.3074 129.432C77.963 129.407 78.5832 129.432 78.6089 129.432L78.5939 129.861C77.6154 129.828 76.478 129.879 76.1443 130.007C76.5144 130.393 77.0928 130.398 77.0992 130.398V130.824Z" fill="#D28572"/>
<path d="M66.7945 131.683C66.7591 131.683 65.9361 131.675 65.4469 131.066C65.4016 131.016 65.3724 130.954 65.3628 130.888C65.3532 130.822 65.3638 130.754 65.3932 130.694C65.4833 130.513 65.7409 130.34 67.0027 130.291C67.6572 130.267 68.2785 130.291 68.3043 130.291L68.2892 130.72C67.3107 130.687 66.1733 130.739 65.8396 130.866C66.2098 131.253 66.7881 131.257 66.7945 131.257V131.683Z" fill="#D28572"/>
<path d="M73.5569 71.2354L76.1504 74.2644C77.3541 75.6695 77.9593 77.4904 77.8361 79.3365L77.0474 91.1845C77.0474 91.1845 77.2888 97.3071 78.0947 98.2749C78.9005 99.2427 76.5635 100.128 73.2662 100.691C69.9688 101.255 59.7303 101.175 59.2464 99.644C58.7625 98.1129 61.2604 97.0688 60.4556 93.279L62.0651 75.8761L64.2004 72.1699L69.8015 71.9274L73.5569 71.2354Z" fill="#CBCBFF"/>
<path d="M71.9492 95.5208L75.812 81.1963L87.3618 81.8176L83.132 96.0187L71.9492 95.5208Z" fill="#5254CF"/>
<path d="M68.5876 89.0097C68.5876 89.0097 74.2477 87.5601 75.8186 87.8616C77.3894 88.1631 78.0547 89.2565 77.75 89.5537C77.4452 89.8509 76.7843 89.7951 76.7843 89.7951C76.7843 89.7951 76.4817 92.6354 75.3947 93.0581C74.3078 93.4809 66.2496 94.8919 66.2496 94.8919L65.3633 92.5753L68.5876 89.0097Z" fill="#FFBC96"/>
<path d="M68.5899 89.0094L66.2497 94.8926L58.7473 94.9505H58.7237C58.0352 94.9523 57.3559 94.7915 56.7412 94.4814C56.1265 94.1712 55.5936 93.7204 55.1859 93.1656C54.7781 92.6108 54.507 91.9676 54.3946 91.2883C54.2822 90.609 54.3317 89.9127 54.539 89.2561L58.9383 75.261C58.9576 75.1934 58.9823 75.1258 59.0059 75.0582C59.1948 74.5742 59.4927 74.1402 59.8764 73.7898C60.26 73.4394 60.7193 73.1821 61.2184 73.0378L64.197 72.1719L64.1627 72.394L61.6583 88.6853L68.5899 89.0094Z" fill="#CBCBFF"/>
<path d="M69.9879 76.5843C69.8447 76.5843 69.7047 76.5418 69.5856 76.4622C69.4665 76.3826 69.3736 76.2695 69.3188 76.1372C69.264 76.0048 69.2496 75.8592 69.2776 75.7187C69.3055 75.5782 69.3745 75.4492 69.4758 75.3479C69.5771 75.2466 69.7062 75.1776 69.8467 75.1497C69.9871 75.1217 70.1328 75.1361 70.2651 75.1909C70.3975 75.2457 70.5106 75.3385 70.5902 75.4576C70.6697 75.5767 70.7122 75.7168 70.7122 75.86C70.7119 76.052 70.6355 76.2361 70.4998 76.3718C70.364 76.5076 70.1799 76.584 69.9879 76.5843ZM69.9879 75.4576C69.9084 75.4576 69.8306 75.4812 69.7644 75.5255C69.6982 75.5697 69.6467 75.6325 69.6162 75.706C69.5857 75.7796 69.5778 75.8605 69.5933 75.9385C69.6088 76.0166 69.6471 76.0883 69.7034 76.1445C69.7597 76.2008 69.8314 76.2391 69.9094 76.2547C69.9875 76.2702 70.0684 76.2622 70.1419 76.2318C70.2155 76.2013 70.2783 76.1497 70.3225 76.0836C70.3667 76.0174 70.3903 75.9396 70.3903 75.86C70.3903 75.7533 70.3479 75.651 70.2725 75.5755C70.197 75.5 70.0947 75.4576 69.9879 75.4576Z" fill="#5254CF"/>
<path d="M66.3606 95.0538L60.4688 95.0377V94.7158L66.1428 94.7308L68.3585 89.1587L61.4581 88.8368L63.4238 80.5146L63.7371 80.5898L61.8604 88.5332L68.8242 88.8583L66.3606 95.0538Z" fill="#5254CF"/>
<path d="M79.9955 80.6963L79.709 82.3165L83.2542 82.5257L83.4827 80.9442L79.9955 80.6963Z" fill="#1D2F6F"/>
<path d="M76.7391 89.8911L75.7917 89.4426L74.4258 89.5821L74.4043 89.3686L75.8282 89.2227L76.8314 89.6969L76.7391 89.8911Z" fill="#D28572"/>
<path d="M75.4906 90.3652L75.3828 90.5508L76.4917 91.1946L76.5994 91.009L75.4906 90.3652Z" fill="#D28572"/>
<path d="M75.0136 91.4652L74.9004 91.6475L76.0807 92.3807L76.194 92.1984L75.0136 91.4652Z" fill="#D28572"/>
<path d="M84.2573 92.1529C84.2573 92.1529 82.4204 88.2128 82.9697 87.8019C83.2916 87.5604 83.6543 87.8823 83.6543 87.8823C83.6543 87.8823 83.1307 86.6741 83.5341 86.4724C83.9376 86.2707 84.2187 86.7138 84.2187 86.7138C84.2187 86.7138 84.2584 85.7879 84.5814 85.7879C84.9044 85.7879 85.266 86.3512 85.266 86.3512C85.266 86.3512 85.2252 85.7074 85.6683 85.6666C86.1115 85.6258 87.119 87.7214 87.3207 89.5294C87.5074 91.2161 87.4409 94.1626 83.8153 93.7999L84.2573 92.1529Z" fill="#FFBC96"/>
<path d="M83.7516 87.8472L83.5508 87.9229L84.2194 89.697L84.4202 89.6213L83.7516 87.8472Z" fill="#D28572"/>
<path d="M84.3324 86.6732L84.1328 86.752L85.0161 88.9908L85.2157 88.912L84.3324 86.6732Z" fill="#D28572"/>
<path d="M84.5959 86.0737L84.3984 86.1553L85.3118 88.3665L85.5092 88.285L84.5959 86.0737Z" fill="#D28572"/>
<path d="M72.3055 71.7022L66.1895 71.9168L67.0479 62.7373L70.8516 65.0958L71.9064 65.7481L72.1671 69.3942L72.3055 71.7022Z" fill="#FFBC96"/>
<path d="M72.162 69.3926C69.3486 68.8561 67.8164 65.5298 67.8164 65.5298L70.8476 65.1006L71.9013 65.754L72.162 69.3926Z" fill="#D28572"/>
<path d="M74.5405 58.023C74.5405 58.023 76.4773 67.1778 72.9557 67.2357C69.4341 67.2937 65.9727 65.182 65.9727 65.182L66.0606 60.2526L68.2066 58.1989L71.6692 57.083L74.5405 58.023Z" fill="#FFBC96"/>
<path d="M75.1684 58.4546C75.0546 58.7937 74.817 59.0773 74.5031 59.2487C73.6104 59.665 72.5417 58.7122 71.6146 59.0469C70.6875 59.3817 70.6146 60.6908 69.8763 61.3346C69.181 61.9354 68.1209 61.7809 67.2282 61.5577L67.8634 62.8453C67.2153 63.5879 66.932 64.7081 67.0136 66.206C67.1721 67.3623 67.0087 68.54 66.5415 69.6095C65.476 71.9862 64.2592 72.2362 64.2592 72.2362L61.2194 73.0345C60.7208 73.1798 60.2623 73.4377 59.879 73.7882C59.4958 74.1386 59.1982 74.5724 59.009 75.0561C58.6907 74.6376 58.424 74.1822 58.215 73.6998C57.8931 72.88 57.8416 71.9057 58.3008 71.1503C58.5884 70.6739 59.0691 70.3091 59.2966 69.7984C59.7429 68.7812 59.0906 67.4635 59.7172 66.5407C60.0606 66.03 60.6829 65.8197 61.2494 65.5751C61.816 65.3304 62.404 64.957 62.5199 64.3604C62.6272 63.7896 62.2666 63.2488 61.9533 62.7638C61.64 62.2788 61.3396 61.6736 61.5713 61.1457C61.919 60.356 63.0735 60.4075 63.7431 59.8581C64.3654 59.3345 64.4083 58.416 64.58 57.622C64.8719 56.24 65.7904 54.9266 67.1337 54.5017C68.6445 54.0296 70.2669 54.7421 71.5588 55.6477C71.6837 55.7465 71.8245 55.8235 71.9751 55.8752C72.2713 55.9567 72.5803 55.8322 72.885 55.7679C73.2367 55.6996 73.6003 55.7261 73.9384 55.8447C74.2765 55.9633 74.5769 56.1697 74.8089 56.4427C75.0409 56.7158 75.196 57.0456 75.2584 57.3984C75.3209 57.7512 75.2883 58.1143 75.1641 58.4504L75.1684 58.4546Z" fill="#1D2F6F"/>
<path d="M68.716 63.7996C69.4577 63.3228 69.6226 62.2575 69.0843 61.4202C68.5461 60.5829 67.5085 60.2907 66.7668 60.7675C66.0251 61.2443 65.8602 62.3096 66.3984 63.1469C66.9367 63.9841 67.9743 64.2764 68.716 63.7996Z" fill="#FFBC96"/>
<path d="M68.1131 63.459C68.1131 63.4525 68.0841 62.8677 67.7139 62.5415C67.6077 62.4545 67.4846 62.3905 67.3523 62.3536C67.2201 62.3166 67.0816 62.3076 66.9457 62.3269L66.9199 62.0051C67.0995 61.9816 67.2819 61.996 67.4556 62.0472C67.6293 62.0984 67.7904 62.1852 67.9285 62.3023C68.4017 62.7218 68.4339 63.4171 68.435 63.4472L68.1131 63.459Z" fill="#1D2F6F"/>
<path opacity="0.4" d="M70.0529 64.1976C70.492 64.1976 70.848 63.8416 70.848 63.4025C70.848 62.9634 70.492 62.6074 70.0529 62.6074C69.6138 62.6074 69.2578 62.9634 69.2578 63.4025C69.2578 63.8416 69.6138 64.1976 70.0529 64.1976Z" fill="#1D2F6F"/>
<path d="M73.2055 62.0234C73.4072 62.1694 73.595 62.3335 73.7667 62.5138C73.9463 62.6955 74.1027 62.8988 74.2323 63.119C74.266 63.1796 74.294 63.2432 74.316 63.3089C74.3446 63.3874 74.3549 63.4715 74.3461 63.5546C74.3385 63.6085 74.3171 63.6595 74.2838 63.7027C74.2526 63.7452 74.2108 63.7788 74.1626 63.8003C74.1242 63.8183 74.0833 63.8306 74.0413 63.8368L73.9437 63.8497C73.6934 63.8716 73.4415 63.8655 73.1926 63.8314V63.7156C73.433 63.6748 73.6776 63.6447 73.9051 63.5975L73.9877 63.5771C74.0059 63.5724 74.0236 63.5656 74.0403 63.5567C74.0639 63.5385 74.0585 63.5407 74.0628 63.517C74.0622 63.4781 74.0546 63.4395 74.0403 63.4033C74.0211 63.3539 73.9985 63.3058 73.9727 63.2595C73.8538 63.0576 73.7207 62.8643 73.5746 62.6812L73.125 62.1071L73.2055 62.0234Z" fill="#D28572"/>
<path d="M71.9466 62.3189C72.0983 62.3189 72.2212 62.1959 72.2212 62.0442C72.2212 61.8925 72.0983 61.7695 71.9466 61.7695C71.7949 61.7695 71.6719 61.8925 71.6719 62.0442C71.6719 62.1959 71.7949 62.3189 71.9466 62.3189Z" fill="#1D2F6F"/>
<path d="M74.4895 62.1627C74.6412 62.1627 74.7642 62.0397 74.7642 61.888C74.7642 61.7363 74.6412 61.6133 74.4895 61.6133C74.3378 61.6133 74.2148 61.7363 74.2148 61.888C74.2148 62.0397 74.3378 62.1627 74.4895 62.1627Z" fill="#1D2F6F"/>
<path d="M72.0163 61.321L71.1579 61.4594C71.095 61.4696 71.0307 61.4544 70.979 61.4172C70.9272 61.38 70.8924 61.3238 70.8822 61.2609C70.877 61.2298 70.878 61.198 70.8852 61.1673C70.8924 61.1366 70.9056 61.1076 70.924 61.0821C70.9425 61.0565 70.9659 61.0349 70.9927 61.0184C71.0196 61.002 71.0495 60.991 71.0807 60.9862L71.9391 60.8467C72.0019 60.8368 72.0661 60.8521 72.1178 60.8892C72.1694 60.9264 72.2043 60.9825 72.2148 61.0452C72.2248 61.1081 72.2095 61.1723 72.1723 61.2239C72.1351 61.2756 72.0791 61.3104 72.0163 61.321Z" fill="#1D2F6F"/>
<path d="M74.7637 61.2179H74.0802C74.0164 61.2179 73.9553 61.1926 73.9102 61.1475C73.8652 61.1024 73.8398 61.0413 73.8398 60.9776C73.8401 60.914 73.8656 60.8531 73.9106 60.8083C73.9557 60.7635 74.0166 60.7383 74.0802 60.7383H74.7637C74.8272 60.7383 74.888 60.7635 74.9329 60.8084C74.9778 60.8532 75.003 60.9141 75.003 60.9776C75.0031 61.0091 74.997 61.0403 74.9851 61.0695C74.9731 61.0986 74.9555 61.1251 74.9333 61.1474C74.911 61.1698 74.8846 61.1875 74.8555 61.1996C74.8264 61.2117 74.7952 61.2179 74.7637 61.2179Z" fill="#1D2F6F"/>
<path d="M71.5387 64.1348C71.6757 64.2905 71.8305 64.4295 72.0001 64.5489C72.1668 64.6657 72.3507 64.7558 72.5452 64.8161C72.7383 64.8773 72.9402 64.9067 73.1428 64.903C73.2458 64.9026 73.3486 64.8958 73.4508 64.8826C73.5581 64.8708 73.6546 64.8429 73.7619 64.8301L73.7898 64.9084C73.6899 64.9551 73.587 64.9952 73.4819 65.0286C73.3744 65.06 73.264 65.0809 73.1525 65.0908C72.9257 65.1145 72.6965 65.0904 72.4797 65.02C72.0466 64.88 71.6839 64.5788 71.4668 64.1788L71.5387 64.1348Z" fill="#1D2F6F"/>
<path d="M69.7985 71.9296L67.8241 74.6679L64.3262 72.2644L64.3905 72.2129C65.3166 71.5478 66.0533 70.6528 66.528 69.6162L69.7985 71.9296Z" fill="#CBCBFF"/>
<path d="M69.793 71.9292L72.1697 74.5881L74.4122 72.2029L72.1697 69.3916L69.793 71.9292Z" fill="#CBCBFF"/>
<path d="M67.8601 74.8912L64.1035 72.3064L64.2859 72.0403L67.7828 74.4481L69.5694 71.9694L66.3654 69.7602L66.5478 69.4951L70.0222 71.8911L67.8601 74.8912Z" fill="#5254CF"/>
<path d="M72.1714 74.8244L69.5801 71.9252L72.0566 69.2803L72.2926 69.5002L70.0157 71.9306L72.1778 74.348L74.2637 72.1259L74.4987 72.3469L72.1714 74.8244Z" fill="#5254CF"/>
<path d="M245.932 165.838H0.755859V166.267H245.932V165.838Z" fill="#1D2F6F"/>
</svg>
