<svg width="209" height="135" viewBox="0 0 209 135" fill="none" xmlns="http://www.w3.org/2000/svg">
<path d="M158.223 10.3405H156.016C155.922 10.341 155.83 10.3084 155.757 10.2484C155.683 10.1883 155.633 10.1046 155.615 10.0117C155.395 9.06479 155.001 8.16706 154.453 7.36436C154.4 7.2919 154.344 7.21109 154.291 7.13028L154.174 6.94357C153.897 6.43426 153.757 5.86162 153.768 5.28186C153.779 4.7021 153.941 4.13515 154.237 3.63667C154.533 3.13818 154.954 2.72529 155.458 2.43853C155.962 2.15176 156.532 2.00098 157.112 2.00098C157.691 2.00098 158.261 2.15176 158.765 2.43853C159.269 2.72529 159.69 3.13818 159.986 3.63667C160.283 4.13515 160.444 4.7021 160.455 5.28186C160.466 5.86162 160.326 6.43426 160.049 6.94357H160.085L159.943 7.13864C159.924 7.16154 159.906 7.18575 159.89 7.21109L159.84 7.28354C159.261 8.11043 158.846 9.04018 158.616 10.0228C158.596 10.1123 158.547 10.1924 158.475 10.2501C158.404 10.3077 158.315 10.3396 158.223 10.3405ZM154.495 7.05782C154.535 7.12143 154.579 7.18283 154.626 7.24174C155.192 8.06928 155.597 8.99561 155.821 9.97268C155.83 10.0177 155.855 10.0581 155.89 10.0871C155.926 10.1161 155.971 10.1318 156.016 10.1315H158.223C158.27 10.1323 158.314 10.1168 158.35 10.0877C158.386 10.0587 158.41 10.0179 158.419 9.97268C158.654 8.96326 159.079 8.008 159.673 7.15814L159.725 7.08012L159.764 7.01881C160.057 6.55057 160.221 6.0132 160.239 5.46126C160.257 4.90933 160.128 4.36249 159.866 3.87626C159.605 3.39003 159.219 2.98174 158.748 2.69283C158.278 2.40393 157.739 2.2447 157.187 2.23132C156.622 2.21733 156.063 2.35664 155.571 2.63446C155.079 2.91228 154.671 3.31823 154.391 3.8092C154.111 4.30017 153.969 4.85783 153.981 5.42295C153.992 5.98806 154.156 6.53954 154.456 7.01881L154.495 7.05782Z" fill="#DBB3A7"/>
<path d="M158.004 10.3426H156.248V8.16066C156.249 8.0015 156.313 7.84911 156.425 7.73683C156.538 7.62456 156.691 7.56152 156.85 7.56152H157.407C157.566 7.56226 157.717 7.62571 157.829 7.73799C157.941 7.85027 158.004 8.00224 158.004 8.16066V10.3426ZM156.457 10.1336H157.795V8.16066C157.795 8.05719 157.754 7.95795 157.68 7.88479C157.607 7.81163 157.508 7.77052 157.405 7.77052H156.847C156.743 7.77052 156.644 7.81154 156.57 7.88462C156.497 7.95771 156.455 8.05693 156.454 8.16066L156.457 10.1336Z" fill="#DBB3A7"/>
<path d="M158.04 10.7783H156.198C156.113 10.7783 156.03 10.7443 155.97 10.6837C155.909 10.623 155.875 10.5408 155.875 10.4551C155.875 10.3694 155.909 10.2871 155.97 10.2265C156.03 10.1659 156.113 10.1318 156.198 10.1318H158.04C158.126 10.1318 158.208 10.1659 158.269 10.2265C158.329 10.2871 158.364 10.3694 158.364 10.4551C158.364 10.5408 158.329 10.623 158.269 10.6837C158.208 10.7443 158.126 10.7783 158.04 10.7783ZM156.198 10.3408C156.168 10.3408 156.139 10.3529 156.117 10.3743C156.096 10.3957 156.084 10.4248 156.084 10.4551C156.084 10.4854 156.096 10.5145 156.117 10.5359C156.139 10.5573 156.168 10.5693 156.198 10.5693H158.04C158.071 10.5693 158.1 10.5573 158.121 10.5359C158.142 10.5145 158.155 10.4854 158.155 10.4551C158.154 10.425 158.142 10.3964 158.12 10.3751C158.099 10.3538 158.07 10.3415 158.04 10.3408H156.198Z" fill="#DBB3A7"/>
<path d="M158.039 11.2135H156.197C156.152 11.2176 156.107 11.2124 156.064 11.1981C156.022 11.1839 155.983 11.1608 155.949 11.1306C155.916 11.1003 155.889 11.0634 155.871 11.0222C155.853 10.9811 155.844 10.9366 155.844 10.8916C155.844 10.8466 155.853 10.8022 155.871 10.761C155.889 10.7199 155.916 10.683 155.949 10.6527C155.983 10.6224 156.022 10.5994 156.064 10.5851C156.107 10.5708 156.152 10.5656 156.197 10.5698H158.039C158.084 10.5656 158.129 10.5708 158.172 10.5851C158.214 10.5994 158.253 10.6224 158.287 10.6527C158.32 10.683 158.346 10.7199 158.365 10.761C158.383 10.8022 158.392 10.8466 158.392 10.8916C158.392 10.9366 158.383 10.9811 158.365 11.0222C158.346 11.0634 158.32 11.1003 158.287 11.1306C158.253 11.1608 158.214 11.1839 158.172 11.1981C158.129 11.2124 158.084 11.2176 158.039 11.2135ZM156.197 10.7788C156.181 10.7762 156.164 10.7772 156.148 10.7817C156.132 10.7862 156.117 10.794 156.105 10.8048C156.092 10.8155 156.082 10.8288 156.075 10.8438C156.069 10.8588 156.065 10.8751 156.065 10.8916C156.065 10.9081 156.069 10.9244 156.075 10.9394C156.082 10.9544 156.092 10.9677 156.105 10.9785C156.117 10.9892 156.132 10.9971 156.148 11.0016C156.164 11.006 156.181 11.007 156.197 11.0045H158.039C158.055 11.007 158.072 11.006 158.088 11.0016C158.104 10.9971 158.118 10.9892 158.131 10.9785C158.144 10.9677 158.154 10.9544 158.161 10.9394C158.167 10.9244 158.171 10.9081 158.171 10.8916C158.171 10.8751 158.167 10.8588 158.161 10.8438C158.154 10.8288 158.144 10.8155 158.131 10.8048C158.118 10.794 158.104 10.7862 158.088 10.7817C158.072 10.7772 158.055 10.7762 158.039 10.7788H156.197Z" fill="#DBB3A7"/>
<path d="M158.04 11.6514H156.198C156.113 11.6514 156.03 11.6173 155.97 11.5567C155.909 11.4961 155.875 11.4139 155.875 11.3281C155.875 11.2424 155.909 11.1602 155.97 11.0996C156.03 11.0389 156.113 11.0049 156.198 11.0049H158.04C158.126 11.0049 158.208 11.0389 158.269 11.0996C158.329 11.1602 158.364 11.2424 158.364 11.3281C158.364 11.4139 158.329 11.4961 158.269 11.5567C158.208 11.6173 158.126 11.6514 158.04 11.6514ZM156.198 11.2139C156.168 11.2139 156.139 11.2259 156.117 11.2473C156.096 11.2688 156.084 11.2978 156.084 11.3281C156.084 11.3584 156.096 11.3875 156.117 11.4089C156.139 11.4304 156.168 11.4424 156.198 11.4424H158.04C158.071 11.4424 158.1 11.4304 158.121 11.4089C158.142 11.3875 158.155 11.3584 158.155 11.3281C158.155 11.2978 158.142 11.2688 158.121 11.2473C158.1 11.2259 158.071 11.2139 158.04 11.2139H156.198Z" fill="#DBB3A7"/>
<path d="M157.33 12.3285H156.903C156.786 12.3285 156.674 12.2822 156.592 12.1996C156.509 12.117 156.463 12.005 156.463 11.8882V11.4424H157.767V11.8882C157.767 12.0045 157.721 12.1161 157.639 12.1986C157.557 12.2811 157.446 12.3278 157.33 12.3285ZM156.672 11.6514V11.8882C156.672 11.9496 156.696 12.0084 156.74 12.0518C156.783 12.0952 156.842 12.1195 156.903 12.1195H157.33C157.39 12.1188 157.449 12.0941 157.491 12.0508C157.534 12.0075 157.558 11.9491 157.558 11.8882V11.6514H156.672Z" fill="#DBB3A7"/>
<path d="M157.219 4.69043H157.01V7.6638H157.219V4.69043Z" fill="#DBB3A7"/>
<path d="M156.673 7.72672C156.055 6.82942 155.118 5.47231 155.06 5.40543L154.82 5.17414L155.155 5.23266C155.495 5.27963 155.842 5.24887 156.168 5.14269C156.495 5.03651 156.794 4.85766 157.041 4.61959L157.125 4.5332L157.2 4.62795C157.425 4.88358 157.714 5.07445 158.037 5.18078C158.361 5.2871 158.707 5.30501 159.039 5.23266L159.385 5.16856L159.12 5.42215C159.07 5.48346 158.131 6.84056 157.512 7.73787L157.342 7.61804C158.092 6.52846 158.588 5.81507 158.822 5.48346C158.506 5.51404 158.187 5.47332 157.889 5.36433C157.591 5.25533 157.321 5.08082 157.1 4.85367C156.619 5.28213 155.99 5.50522 155.347 5.4751C155.578 5.80114 156.077 6.5201 156.835 7.61804L156.673 7.72672Z" fill="#DBB3A7"/>
<path d="M209 114.04H0V134.999H209V114.04Z" fill="#EFE1DC"/>
<path d="M74.0793 77.0042H72.1287L71.7497 74.8083C71.563 74.7804 71.3735 74.7414 71.1728 74.6968L69.9913 76.575L68.1911 75.8449L68.6537 73.6741C68.4503 73.5515 68.2524 73.4177 68.0601 73.2784L66.2404 74.5519L64.8666 73.1781L66.1401 71.3584C66.0231 71.1995 65.9116 71.0351 65.8085 70.8707L63.6461 71.364L62.8881 69.5749L64.7496 68.3683C64.6938 68.1398 64.6465 67.9029 64.6102 67.6688L62.4199 67.2843V65.3336L64.6075 64.9463C64.6353 64.7596 64.6743 64.5701 64.7189 64.3694L62.8407 63.1879L63.5708 61.3877L65.7416 61.8503C65.867 61.6468 65.998 61.4462 66.1373 61.2567L64.8638 59.437L66.2377 58.0632L68.0573 59.3367C68.2162 59.2197 68.3806 59.1082 68.545 59.0051L68.0518 56.8426L69.8408 56.0847L71.0474 57.9462C71.276 57.8904 71.51 57.843 71.7469 57.8068L72.1342 55.6221H74.0849L74.4723 57.8068C74.659 57.8375 74.8485 57.8737 75.0491 57.9211L76.2306 56.0401L78.0308 56.7702L77.5682 58.941C77.7717 59.0664 77.9723 59.1974 78.1618 59.3367L79.9759 58.0883L81.3497 59.4621L80.0762 61.2818C80.1933 61.4406 80.302 61.605 80.4079 61.7695L82.5703 61.2762L83.3283 63.0653L81.4668 64.2719C81.5225 64.5004 81.5699 64.7345 81.6061 64.9713L83.7909 65.3587V67.3093L81.6061 67.6967C81.5783 67.8834 81.5392 68.0729 81.4919 68.2763L83.3729 69.4551L82.6428 71.2553L80.4719 70.7927C80.3493 70.9961 80.2156 71.1967 80.0762 71.3862L81.3497 73.2059L79.9759 74.5603L78.1562 73.2868C77.9974 73.4038 77.833 73.5153 77.6686 73.6184L78.1618 75.7808L76.3728 76.5388L75.1661 74.6773C74.9376 74.733 74.7008 74.7804 74.4667 74.8166L74.0793 77.0042ZM72.3126 76.7952H73.9038L74.2855 74.6327H74.3608C74.6395 74.5909 74.9181 74.5352 75.1968 74.4683L75.2692 74.4488L76.4619 76.288L77.9277 75.6693L77.4401 73.5292L77.5042 73.4902C77.7048 73.3676 77.9054 73.231 78.1005 73.0861L78.1618 73.0415L79.9592 74.3011L81.0739 73.1864L79.8143 71.3862L79.8589 71.3249C80.0261 71.0991 80.1815 70.8647 80.3243 70.6227L80.3633 70.5586L82.509 71.0184L83.1081 69.5415L81.2494 68.3739L81.2661 68.3014C81.3275 68.0534 81.372 67.8221 81.4055 67.5936V67.5183L83.5652 67.1366V65.5454L81.4055 65.1636V65.0884C81.3643 64.807 81.3085 64.528 81.2383 64.2524L81.2216 64.1799L83.0608 62.9872L82.4421 61.5214L80.3075 61.9896L80.2685 61.9255C80.1431 61.7221 80.0066 61.5214 79.8645 61.3292L79.8199 61.2679L81.0906 59.4816L79.9759 58.3669L78.1785 59.6237L78.1172 59.5791C77.8916 59.4116 77.6572 59.2562 77.415 59.1138L77.3509 59.0747L77.8107 56.929L76.3337 56.3299L75.1661 58.1886L75.0937 58.1719C74.8457 58.1106 74.6144 58.066 74.3859 58.0325H74.3106L73.9038 55.8589H72.3126L71.9308 58.0186H71.8556C71.5742 58.0598 71.2952 58.1156 71.0196 58.1858L70.9471 58.2025L69.7544 56.3633L68.297 56.9736L68.7847 59.1138L68.7206 59.1528C68.5199 59.2782 68.3165 59.4119 68.1242 59.5568L68.0629 59.6014L66.2627 58.3446L65.1481 59.4593L66.4076 61.2567L66.3631 61.318C66.1955 61.5436 66.0401 61.778 65.8977 62.0203L65.8587 62.0843L63.7129 61.6246L63.1138 63.1015L64.9725 64.2691L64.9558 64.3416C64.8945 64.5896 64.8499 64.8209 64.8165 65.0494V65.1246L62.654 65.5064V67.0976L64.8165 67.4793V67.5546C64.8583 67.8332 64.914 68.1119 64.9809 68.3906L65.0004 68.463L63.1612 69.6557L63.7798 71.1215L65.92 70.6338L65.959 70.6979C66.0844 70.9014 66.2209 71.102 66.3631 71.2943L66.4076 71.3556L65.1481 73.1558L66.2627 74.2704L68.0629 73.0109L68.1242 73.0555C68.3494 73.2237 68.5838 73.379 68.8265 73.5208L68.8906 73.5598L68.4308 75.7056L69.9077 76.3047L71.0753 74.446L71.1478 74.4627C71.3958 74.524 71.6271 74.5686 71.8556 74.6021H71.9308L72.3126 76.7952ZM73.1068 72.7378C71.8391 72.7378 70.6 72.3619 69.546 71.6576C68.4919 70.9533 67.6704 69.9523 67.1853 68.7812C66.7002 67.61 66.5733 66.3213 66.8206 65.078C67.0679 63.8348 67.6783 62.6927 68.5747 61.7964C69.4711 60.9 70.6131 60.2896 71.8564 60.0423C73.0997 59.795 74.3884 59.9219 75.5595 60.407C76.7307 60.8921 77.7317 61.7136 78.436 62.7676C79.1402 63.8216 79.5161 65.0608 79.5161 66.3284C79.5124 68.0272 78.836 69.6553 77.6348 70.8565C76.4336 72.0576 74.8055 72.7341 73.1068 72.7378ZM73.1068 60.1086C71.8783 60.1086 70.6773 60.4729 69.6559 61.1554C68.6344 61.838 67.8383 62.8081 67.3681 63.9431C66.898 65.0781 66.775 66.327 67.0147 67.5319C67.2543 68.7368 67.8459 69.8436 68.7146 70.7123C69.5833 71.581 70.6901 72.1725 71.895 72.4122C73.0999 72.6519 74.3488 72.5289 75.4838 72.0587C76.6188 71.5886 77.5889 70.7925 78.2714 69.771C78.954 68.7495 79.3183 67.5486 79.3183 66.3201C79.3168 64.6731 78.6619 63.0941 77.4973 61.9295C76.3328 60.765 74.7537 60.1101 73.1068 60.1086Z" fill="#DBB3A7"/>
<path d="M33.7355 42.2182C32.1669 42.2182 30.6334 41.7529 29.3291 40.8814C28.0248 40.0098 27.0083 38.771 26.4081 37.3217C25.8079 35.8723 25.651 34.2776 25.9573 32.739C26.2635 31.2005 27.0191 29.7874 28.1286 28.6784C29.238 27.5693 30.6514 26.8142 32.19 26.5085C33.7286 26.2028 35.3234 26.3603 36.7725 26.961C38.2216 27.5616 39.46 28.5786 40.3312 29.8832C41.2023 31.1878 41.667 32.7214 41.6664 34.2901C41.6642 36.3925 40.8278 38.4082 39.3409 39.8946C37.854 41.381 35.838 42.2167 33.7355 42.2182ZM33.7355 26.5682C32.2083 26.5682 30.7154 27.0211 29.4455 27.8696C28.1757 28.7181 27.1859 29.9241 26.6015 31.3351C26.017 32.746 25.8641 34.2987 26.1621 35.7965C26.46 37.2944 27.1954 38.6703 28.2754 39.7503C29.3553 40.8302 30.7312 41.5656 32.2291 41.8636C33.727 42.1615 35.2796 42.0086 36.6906 41.4242C38.1016 40.8397 39.3075 39.85 40.156 38.5801C41.0045 37.3103 41.4574 35.8173 41.4574 34.2901C41.4552 32.2428 40.6409 30.28 39.1933 28.8324C37.7456 27.3847 35.7828 26.5704 33.7355 26.5682Z" fill="#DBB3A7"/>
<path d="M151.947 125.33H147.156V125.609H151.947V125.33Z" fill="#E2CFC7"/>
<path d="M139.014 125.33H100.881V125.609H139.014V125.33Z" fill="#E2CFC7"/>
<path d="M97.3141 125.33H75.3691V125.609H97.3141V125.33Z" fill="#E2CFC7"/>
<path d="M202.032 119.302H189.467V119.58H202.032V119.302Z" fill="#E2CFC7"/>
<path d="M186.805 119.302H168.402V119.58H186.805V119.302Z" fill="#E2CFC7"/>
<path d="M166.199 119.302H163.365V119.58H166.199V119.302Z" fill="#E2CFC7"/>
<path d="M159.821 119.302H158.684V119.58H159.821V119.302Z" fill="#E2CFC7"/>
<path d="M157.116 119.302H125.348V119.58H157.116V119.302Z" fill="#E2CFC7"/>
<path d="M119.971 119.302H107.963V119.58H119.971V119.302Z" fill="#E2CFC7"/>
<path d="M174.726 53.4817C174.89 57.6066 174.104 61.7141 172.429 65.4873C170.754 69.2604 168.235 72.5983 165.065 75.2434C161.896 77.8885 158.161 79.7701 154.149 80.743C150.137 81.7159 145.955 81.7542 141.926 80.8548C137.897 79.9554 134.128 78.1424 130.911 75.5557C127.694 72.969 125.114 69.6777 123.37 65.9359C121.626 62.194 120.765 58.1015 120.854 53.9743C120.942 49.847 121.978 45.7952 123.88 42.1316L112.881 36.4941C110.117 41.837 108.615 47.7432 108.493 53.7577C108.37 59.7723 109.629 65.7347 112.174 71.1859C114.718 76.6371 118.48 81.4315 123.169 85.1999C127.859 88.9683 133.35 91.6102 139.221 92.9221C145.092 94.2339 151.186 94.1807 157.033 92.7666C162.88 91.3525 168.325 88.6152 172.948 84.7656C177.571 80.9159 181.248 76.0565 183.697 70.5618C186.146 65.067 187.301 59.0835 187.074 53.072L174.726 53.4817Z" fill="#5254CF"/>
<path d="M138.792 29.1483L134.656 17.5C125.244 20.8302 117.454 27.6224 112.873 36.4939L123.872 42.1313C127.018 36.0673 132.351 31.426 138.792 29.1483Z" fill="#5254CF"/>
<path d="M148.672 27.6124L149.087 15.2591C144.177 15.0957 139.279 15.8518 134.646 17.4884L138.782 29.1367C139.95 28.7246 141.144 28.3923 142.357 28.1419C144.434 27.7184 146.553 27.5407 148.672 27.6124Z" fill="#1D2F6F"/>
<path d="M149.087 15.2598L148.66 27.6131C155.468 27.8382 161.938 30.6302 166.773 35.4284C171.607 40.2266 174.448 46.6759 174.724 53.4817L187.072 53.072C186.693 43.1351 182.564 33.7105 175.516 26.6949C168.468 19.6793 159.025 15.5935 149.087 15.2598Z" fill="#5254CF"/>
<path d="M170.238 19.1988L170.09 19.0511L178.55 10.5908H196.062V10.7998H178.637L170.238 19.1988Z" fill="#DBB3A7"/>
<path d="M139.687 12.5616L131.982 4.85646H105.035V4.64746H132.069L132.099 4.67811L139.835 12.4139L139.687 12.5616Z" fill="#DBB3A7"/>
<path d="M119.144 3.57509H106.245C105.907 3.55952 105.588 3.41429 105.354 3.16959C105.121 2.92489 104.99 2.59954 104.99 2.26118C104.99 1.92282 105.121 1.59747 105.354 1.35277C105.588 1.10807 105.907 0.962836 106.245 0.947266H119.144C119.482 0.962836 119.802 1.10807 120.035 1.35277C120.269 1.59747 120.399 1.92282 120.399 2.26118C120.399 2.59954 120.269 2.92489 120.035 3.16959C119.802 3.41429 119.482 3.55952 119.144 3.57509ZM106.245 1.15627C105.977 1.19192 105.732 1.32361 105.554 1.52685C105.376 1.73009 105.277 1.99104 105.277 2.26118C105.277 2.53132 105.376 2.79227 105.554 2.99551C105.732 3.19874 105.977 3.33043 106.245 3.36609H119.144C119.412 3.33043 119.658 3.19874 119.836 2.99551C120.014 2.79227 120.112 2.53132 120.112 2.26118C120.112 1.99104 120.014 1.73009 119.836 1.52685C119.658 1.32361 119.412 1.19192 119.144 1.15627H106.245Z" fill="#DBB3A7"/>
<path d="M194.852 9.69367H186.026C185.849 9.70186 185.671 9.67393 185.505 9.61159C185.338 9.54926 185.186 9.45379 185.057 9.33098C184.929 9.20817 184.826 9.06055 184.756 8.89706C184.686 8.73356 184.65 8.55758 184.65 8.37976C184.65 8.20194 184.686 8.02596 184.756 7.86246C184.826 7.69897 184.929 7.55135 185.057 7.42854C185.186 7.30573 185.338 7.21026 185.505 7.14793C185.671 7.08559 185.849 7.05766 186.026 7.06585H194.852C195.19 7.08142 195.509 7.22665 195.742 7.47135C195.976 7.71605 196.106 8.0414 196.106 8.37976C196.106 8.71812 195.976 9.04347 195.742 9.28817C195.509 9.53287 195.19 9.6781 194.852 9.69367ZM186.026 7.27485C185.869 7.25388 185.709 7.2668 185.557 7.31273C185.405 7.35866 185.264 7.43654 185.145 7.54116C185.025 7.64578 184.93 7.77473 184.864 7.91935C184.798 8.06398 184.764 8.22095 184.764 8.37976C184.764 8.53857 184.798 8.69554 184.864 8.84017C184.93 8.98479 185.025 9.11374 185.145 9.21836C185.264 9.32298 185.405 9.40086 185.557 9.44679C185.709 9.49272 185.869 9.50564 186.026 9.48467H194.852C195.119 9.44901 195.365 9.31732 195.543 9.11409C195.721 8.91085 195.819 8.6499 195.819 8.37976C195.819 8.10962 195.721 7.84867 195.543 7.64543C195.365 7.4422 195.119 7.3105 194.852 7.27485H186.026Z" fill="#DBB3A7"/>
<path d="M189.674 44.8057H150.585L148.548 47.0044L148.49 44.8057H147.066C146.549 44.8057 146.052 44.6002 145.687 44.2344C145.321 43.8685 145.115 43.3724 145.115 42.855V33.2856C145.115 32.7683 145.321 32.2721 145.687 31.9063C146.052 31.5405 146.549 31.335 147.066 31.335H189.674C190.191 31.335 190.688 31.5405 191.053 31.9063C191.419 32.2721 191.625 32.7683 191.625 33.2856V42.8495C191.625 43.1061 191.576 43.3604 191.478 43.5977C191.38 43.835 191.237 44.0507 191.055 44.2324C190.874 44.4141 190.659 44.5583 190.422 44.6567C190.185 44.7551 189.931 44.8057 189.674 44.8057Z" fill="white"/>
<path d="M187.608 34.1826H179.908V34.3916H187.608V34.1826Z" fill="#DBB3A7"/>
<path d="M174.637 34.1826H164.625V34.3916H174.637V34.1826Z" fill="#DBB3A7"/>
<path d="M162.84 34.1826H157.791V34.3916H162.84V34.1826Z" fill="#DBB3A7"/>
<path d="M187.608 36.6465H169.283V36.8555H187.608V36.6465Z" fill="#DBB3A7"/>
<path d="M166.558 36.6465H157.791V36.8555H166.558V36.6465Z" fill="#DBB3A7"/>
<path d="M187.605 39.1113H180.432V39.3203H187.605V39.1113Z" fill="#DBB3A7"/>
<path d="M177.097 39.1113H157.791V39.3203H177.097V39.1113Z" fill="#DBB3A7"/>
<path d="M176.45 41.5762H169.951V41.7852H176.45V41.5762Z" fill="#DBB3A7"/>
<path d="M167.876 41.5762H157.791V41.7852H167.876V41.5762Z" fill="#DBB3A7"/>
<path d="M151.469 41.7846C150.717 41.7846 149.982 41.5617 149.357 41.1441C148.732 40.7264 148.245 40.1328 147.957 39.4382C147.67 38.7437 147.594 37.9794 147.741 37.2421C147.888 36.5048 148.25 35.8275 148.781 35.2959C149.313 34.7643 149.99 34.4023 150.727 34.2557C151.465 34.109 152.229 34.1843 152.924 34.472C153.618 34.7596 154.212 35.2468 154.629 35.8719C155.047 36.497 155.27 37.2319 155.27 37.9836C155.269 38.9915 154.869 39.9579 154.156 40.6705C153.443 41.3832 152.477 41.7839 151.469 41.7846ZM151.469 34.3916C150.759 34.3916 150.064 34.6023 149.473 34.997C148.883 35.3917 148.422 35.9527 148.15 36.609C147.879 37.2654 147.807 37.9876 147.946 38.6844C148.085 39.3812 148.427 40.0212 148.929 40.5236C149.431 41.0259 150.071 41.368 150.768 41.5066C151.465 41.6452 152.187 41.5741 152.844 41.3022C153.5 41.0304 154.061 40.57 154.456 39.9792C154.85 39.3885 155.061 38.6941 155.061 37.9836C155.058 37.0326 154.678 36.1216 154.005 35.4499C153.332 34.7782 152.42 34.4007 151.469 34.4V34.3916Z" fill="#DBB3A7"/>
<path d="M154.126 40.5568H153.917C153.917 39.9655 153.683 39.3985 153.264 38.9804C152.846 38.5623 152.279 38.3275 151.688 38.3275H151.239C150.648 38.3275 150.081 38.5623 149.663 38.9804C149.245 39.3985 149.01 39.9655 149.01 40.5568H148.807C148.807 39.9118 149.064 39.2935 149.52 38.8374C149.976 38.3813 150.594 38.1248 151.239 38.124H151.688C152.008 38.1233 152.325 38.1857 152.621 38.3076C152.917 38.4295 153.185 38.6086 153.412 38.8346C153.638 39.0606 153.818 39.329 153.941 39.6245C154.063 39.92 154.126 40.2368 154.126 40.5568Z" fill="#DBB3A7"/>
<path d="M151.471 37.7047C151.213 37.7047 150.96 37.6281 150.745 37.4845C150.53 37.3408 150.362 37.1367 150.264 36.8979C150.165 36.6591 150.139 36.3963 150.189 36.1428C150.24 35.8893 150.364 35.6564 150.547 35.4736C150.73 35.2908 150.963 35.1664 151.216 35.1159C151.47 35.0655 151.732 35.0914 151.971 35.1903C152.21 35.2892 152.414 35.4567 152.558 35.6717C152.701 35.8866 152.778 36.1393 152.778 36.3978C152.778 36.7444 152.64 37.0768 152.395 37.3219C152.15 37.567 151.818 37.7047 151.471 37.7047ZM151.471 35.3026C151.254 35.3026 151.041 35.3671 150.861 35.4878C150.68 35.6086 150.539 35.7802 150.456 35.981C150.373 36.1818 150.352 36.4027 150.394 36.6158C150.437 36.8288 150.542 37.0245 150.696 37.1779C150.849 37.3313 151.045 37.4357 151.259 37.4777C151.472 37.5198 151.693 37.4976 151.893 37.4141C152.094 37.3306 152.265 37.1894 152.385 37.0085C152.506 36.8276 152.57 36.615 152.569 36.3978C152.568 36.1071 152.452 35.8285 152.246 35.6232C152.041 35.4179 151.762 35.3026 151.471 35.3026Z" fill="#DBB3A7"/>
<path d="M111.338 22.0843H72.2495L70.2153 24.2858L70.1567 22.0843H68.73C68.2126 22.0843 67.7165 21.8788 67.3506 21.513C66.9848 21.1472 66.7793 20.651 66.7793 20.1336V10.5698C66.7793 10.0525 66.9848 9.5563 67.3506 9.19048C67.7165 8.82466 68.2126 8.61914 68.73 8.61914H111.338C111.855 8.61914 112.352 8.82466 112.717 9.19048C113.083 9.5563 113.289 10.0525 113.289 10.5698V20.1364C113.288 20.6533 113.082 21.1487 112.716 21.514C112.351 21.8792 111.855 22.0843 111.338 22.0843Z" fill="white"/>
<path d="M109.641 11.5234H101.941V11.7324H109.641V11.5234Z" fill="#DBB3A7"/>
<path d="M96.6707 11.5234H86.6582V11.7324H96.6707V11.5234Z" fill="#DBB3A7"/>
<path d="M84.8698 11.5234H79.8203V11.7324H84.8698V11.5234Z" fill="#DBB3A7"/>
<path d="M109.638 13.9893H91.3125V14.1983H109.638V13.9893Z" fill="#DBB3A7"/>
<path d="M88.5872 13.9893H79.8203V14.1983H88.5872V13.9893Z" fill="#DBB3A7"/>
<path d="M109.64 16.4521H102.467V16.6611H109.64V16.4521Z" fill="#DBB3A7"/>
<path d="M99.1263 16.4521H79.8203V16.6611H99.1263V16.4521Z" fill="#DBB3A7"/>
<path d="M98.4829 18.916H91.9844V19.125H98.4829V18.916Z" fill="#DBB3A7"/>
<path d="M89.9053 18.916H79.8203V19.125H89.9053V18.916Z" fill="#DBB3A7"/>
<path d="M73.6369 18.8872C72.8851 18.8872 72.1501 18.6642 71.5249 18.2464C70.8998 17.8286 70.4126 17.2348 70.125 16.5401C69.8374 15.8454 69.7623 15.081 69.9092 14.3436C70.0561 13.6062 70.4184 12.9289 70.9502 12.3975C71.4821 11.866 72.1596 11.5042 72.8971 11.3579C73.6346 11.2115 74.399 11.2872 75.0935 11.5753C75.788 11.8634 76.3814 12.351 76.7987 12.9765C77.2161 13.6019 77.4385 14.3371 77.438 15.089C77.4372 16.0966 77.0364 17.0627 76.3237 17.7749C75.6109 18.4871 74.6446 18.8872 73.6369 18.8872ZM73.6369 11.4969C72.9265 11.4969 72.232 11.7076 71.6413 12.1023C71.0506 12.497 70.5902 13.058 70.3184 13.7144C70.0465 14.3707 69.9754 15.0929 70.114 15.7897C70.2526 16.4865 70.5947 17.1265 71.097 17.6289C71.5994 18.1312 72.2394 18.4734 72.9362 18.612C73.633 18.7505 74.3552 18.6794 75.0116 18.4075C75.6679 18.1357 76.2289 17.6753 76.6236 17.0846C77.0183 16.4939 77.229 15.7994 77.229 15.089C77.2282 14.1365 76.8495 13.2233 76.1761 12.5498C75.5026 11.8764 74.5894 11.4977 73.6369 11.4969Z" fill="#DBB3A7"/>
<path d="M76.2899 17.6585H76.0753C76.0753 17.0673 75.8404 16.5003 75.4223 16.0822C75.0043 15.6641 74.4372 15.4292 73.846 15.4292H73.3973C72.8061 15.4292 72.239 15.6641 71.8209 16.0822C71.4029 16.5003 71.168 17.0673 71.168 17.6585H70.959C70.9605 17.014 71.2173 16.3964 71.6733 15.9409C72.1293 15.4855 72.7472 15.2293 73.3917 15.2286H73.8404C74.161 15.2264 74.479 15.2876 74.7759 15.4087C75.0728 15.5298 75.3428 15.7084 75.5705 15.9342C75.7981 16.16 75.9788 16.4286 76.1023 16.7245C76.2258 17.0205 76.2895 17.3379 76.2899 17.6585Z" fill="#DBB3A7"/>
<path d="M73.6354 14.8056C73.3775 14.805 73.1257 14.7281 72.9116 14.5844C72.6975 14.4408 72.5307 14.2369 72.4325 13.9986C72.3342 13.7602 72.3087 13.4981 72.3594 13.2453C72.41 12.9925 72.5345 12.7604 72.717 12.5783C72.8995 12.3962 73.1318 12.2722 73.3847 12.2221C73.6376 12.172 73.8997 12.198 74.1379 12.2968C74.376 12.3956 74.5795 12.5628 74.7227 12.7772C74.8659 12.9916 74.9423 13.2436 74.9423 13.5014C74.9416 13.8476 74.8035 14.1793 74.5585 14.4238C74.3135 14.6683 73.9815 14.8056 73.6354 14.8056ZM73.6354 12.4063C73.4189 12.4068 73.2074 12.4715 73.0277 12.5922C72.8479 12.7129 72.708 12.8841 72.6256 13.0843C72.5431 13.2844 72.5218 13.5045 72.5644 13.7168C72.6069 13.929 72.7115 14.1239 72.8647 14.2768C73.018 14.4297 73.2132 14.5337 73.4255 14.5757C73.6379 14.6178 73.8579 14.5959 74.0579 14.513C74.2578 14.43 74.4287 14.2896 74.5489 14.1096C74.6691 13.9295 74.7333 13.7179 74.7333 13.5014C74.7326 13.2107 74.6166 12.9322 74.4107 12.7269C74.2049 12.5216 73.9261 12.4063 73.6354 12.4063Z" fill="#DBB3A7"/>
<path d="M180.635 84.1228C179.817 83.5332 178.835 83.214 177.827 83.21C176.819 83.206 175.834 83.5174 175.012 84.1005C175.012 84.1005 162.168 93.3662 161.965 93.6895C161.726 94.0673 161.599 94.505 161.6 94.9518V111.652C161.601 112.285 161.853 112.891 162.3 113.338C162.747 113.786 163.353 114.038 163.985 114.04H191.673C192.306 114.038 192.912 113.786 193.359 113.338C193.806 112.891 194.057 112.285 194.059 111.652V94.9518C194.059 94.3828 193.854 93.8328 193.482 93.4024C193.251 93.1321 180.635 84.1228 180.635 84.1228Z" fill="#5254CF"/>
<path d="M171.084 100.288L163.256 112.283L163.489 112.436L171.318 100.441L171.084 100.288Z" fill="#5254CF"/>
<path d="M184.315 100.284L184.082 100.437L191.917 112.427L192.15 112.275L184.315 100.284Z" fill="#5254CF"/>
<path d="M177.808 103.957C176.802 103.96 175.818 103.659 174.985 103.096L162.812 94.8306L162.969 94.5993L175.143 102.867C175.936 103.4 176.87 103.683 177.825 103.679C178.78 103.675 179.711 103.384 180.499 102.845L192.443 94.5938L192.602 94.8223L180.658 103.071C179.82 103.649 178.826 103.958 177.808 103.957Z" fill="#5254CF"/>
<path d="M191.624 74.0645C192.194 74.0644 192.741 74.2902 193.145 74.6922C193.549 75.0943 193.778 75.6401 193.781 76.2102V85.2501H189.467V76.199C189.473 75.6309 189.703 75.088 190.106 74.6883C190.51 74.2886 191.055 74.0644 191.624 74.0645Z" fill="#E0BDAF"/>
<path d="M191.629 74.0645H168.36C167.807 74.0644 167.274 74.2769 166.873 74.6581C166.471 75.0392 166.232 75.5599 166.203 76.1127V96.9597L175.068 102.979C175.884 103.526 176.845 103.816 177.828 103.811C178.81 103.806 179.769 103.507 180.58 102.951L189.458 96.8204V83.3413V76.199C189.469 75.6303 189.703 75.0886 190.109 74.6898C190.514 74.2909 191.06 74.0665 191.629 74.0645Z" fill="white"/>
<path d="M186.39 77.0068H184.199V77.2158H186.39V77.0068Z" fill="#DBB3A7"/>
<path d="M181.917 77.0068H169.266V77.2158H181.917V77.0068Z" fill="#DBB3A7"/>
<path d="M186.391 79.7148H177.83V79.9238H186.391V79.7148Z" fill="#DBB3A7"/>
<path d="M174.19 79.7148H169.266V79.9238H174.19V79.7148Z" fill="#DBB3A7"/>
<path d="M186.39 82.4229H169.266V82.6319H186.39V82.4229Z" fill="#DBB3A7"/>
<path d="M186.388 85.1318H181.305V85.3408H186.388V85.1318Z" fill="#DBB3A7"/>
<path d="M178.506 85.1318H169.266V85.3408H178.506V85.1318Z" fill="#DBB3A7"/>
<path d="M186.39 87.8428H185.1V88.0518H186.39V87.8428Z" fill="#DBB3A7"/>
<path d="M183.628 87.8428H169.266V88.0518H183.628V87.8428Z" fill="#DBB3A7"/>
<path d="M186.388 90.5488H181.59V90.7578H186.388V90.5488Z" fill="#DBB3A7"/>
<path d="M179.456 90.5488H169.266V90.7578H179.456V90.5488Z" fill="#DBB3A7"/>
<path d="M186.39 93.2598H184.484V93.4688H186.39V93.2598Z" fill="#DBB3A7"/>
<path d="M182.491 93.2598H169.266V93.4688H182.491V93.2598Z" fill="#DBB3A7"/>
<path d="M186.389 95.9707H178.127V96.1797H186.389V95.9707Z" fill="#DBB3A7"/>
<path d="M183.49 98.6787H170.059V98.8877H183.49V98.6787Z" fill="#DBB3A7"/>
<path d="M178.508 101.387H173.74V101.596H178.508V101.387Z" fill="#DBB3A7"/>
<path d="M196.302 105.049H184.712C184.162 105.049 183.715 105.495 183.715 106.046V113.038C183.715 113.589 184.162 114.036 184.712 114.036H196.302C196.853 114.036 197.3 113.589 197.3 113.038V106.046C197.3 105.495 196.853 105.049 196.302 105.049Z" fill="white"/>
<path d="M190.497 109.705C190.064 109.706 189.641 109.571 189.287 109.321L184.193 105.698L184.313 105.525L189.41 109.148C189.729 109.376 190.111 109.498 190.502 109.498C190.894 109.498 191.276 109.376 191.595 109.148L196.594 105.545L196.717 105.712L191.723 109.31C191.367 109.569 190.937 109.707 190.497 109.705Z" fill="#DBB3A7"/>
<path d="M187.652 108.048L184.373 113.287L184.55 113.398L187.829 108.159L187.652 108.048Z" fill="#DBB3A7"/>
<path d="M193.259 108.032L193.082 108.143L196.361 113.382L196.538 113.271L193.259 108.032Z" fill="#DBB3A7"/>
<path d="M196.581 107.36C197.458 107.36 198.169 106.649 198.169 105.772C198.169 104.895 197.458 104.184 196.581 104.184C195.703 104.184 194.992 104.895 194.992 105.772C194.992 106.649 195.703 107.36 196.581 107.36Z" fill="#1D2F6F"/>
<path d="M196.852 106.725H196.643V106.034H195.668L196.852 104.624V105.833H197.072V106.042H196.852V106.725ZM196.114 105.825H196.643V105.181L196.114 105.825Z" fill="white"/>
<path d="M132.616 33.3555H78.2679C77.2937 33.3555 76.5039 34.1452 76.5039 35.1194V112.271C76.5039 113.245 77.2937 114.035 78.2679 114.035H132.616C133.59 114.035 134.38 113.245 134.38 112.271V35.1194C134.38 34.1452 133.59 33.3555 132.616 33.3555Z" fill="#5254CF"/>
<path d="M117.788 35.4619H92.8917C92.5147 35.4619 92.209 35.7676 92.209 36.1446V38.4938C92.209 38.8709 92.5147 39.1765 92.8917 39.1765H117.788C118.165 39.1765 118.471 38.8709 118.471 38.4938V36.1446C118.471 35.7676 118.165 35.4619 117.788 35.4619Z" fill="#E2CFC7"/>
<path d="M131.781 37.8037H79.1074V109.588H131.781V37.8037Z" fill="white"/>
<path d="M126.781 42.457H83.9277V48.3648H126.781V42.457Z" fill="#F7E6DF"/>
<path d="M105.058 47.0048C104.779 47.1093 104.482 47.1586 104.183 47.1497C102.888 47.1497 102.316 46.3388 102.316 45.4164C102.316 44.193 103.211 43.5716 104.245 43.5716C104.542 43.5612 104.838 43.6134 105.114 43.7249L104.933 44.455C104.729 44.373 104.512 44.3313 104.292 44.3324C104.021 44.3324 103.761 44.4401 103.569 44.6319C103.377 44.8237 103.269 45.0838 103.269 45.3551C103.269 45.6263 103.377 45.8864 103.569 46.0782C103.761 46.27 104.021 46.3778 104.292 46.3778C104.503 46.3786 104.713 46.3447 104.914 46.2775L105.058 47.0048Z" fill="#1D2F6F"/>
<path d="M106.45 47.0945L105.35 43.6279H106.367L106.729 44.9906C106.843 45.3904 106.936 45.796 107.008 46.2056C107.097 45.7792 107.194 45.3696 107.286 45.0073L107.66 43.6279H108.68L107.543 47.0945H106.45Z" fill="#1D2F6F"/>
<path d="M98.4698 50.9961H83.9902V67.5461H98.4698V50.9961Z" fill="#5254CF"/>
<path d="M93.3157 59.9297H88.9629V67.5456H93.3157V59.9297Z" fill="#FFB9A9"/>
<path d="M93.3157 61.7884C91.4737 62.1451 89.9466 61.9667 88.9629 60.8604V59.9297H93.3157V61.7884Z" fill="#5254CF"/>
<path d="M84.7125 67.5446H97.8321L98.1108 64.5239C98.186 63.6238 97.6649 63.1305 96.7342 62.9383L93.3511 62.4395C92.2365 63.2169 90.1576 63.2532 88.9287 62.4395L85.8271 62.9383C84.8964 63.1278 84.3753 63.6238 84.4505 64.5239L84.7125 67.5446Z" fill="white"/>
<path d="M83.9902 67.5454H86.3505L85.9521 62.9111C85.2403 63.0261 84.5692 63.3194 84.0014 63.7639L83.9902 67.5454Z" fill="white"/>
<path d="M98.4667 63.7193C97.9168 63.2776 97.2549 62.9978 96.555 62.9111L96.1426 67.5454H98.4555L98.4667 63.7193Z" fill="white"/>
<path d="M90.5022 67.5458H91.7701L91.628 64.1321L92.2383 63.4438L91.7116 63.0146L91.1348 63.0369L90.5607 63.0146L90.0312 63.4438L90.6443 64.1321L90.5022 67.5458Z" fill="#1D2F6F"/>
<path d="M88.9595 61.4375L88.2266 62.5522L89.9125 64.0625L90.6788 63.0148L88.9595 61.4375Z" fill="white"/>
<path d="M93.2947 61.4375L94.0304 62.5522L92.3417 64.0625L91.5781 63.0148L93.2947 61.4375Z" fill="white"/>
<path d="M89.9286 64.2191L88.1562 62.6307L88.2956 62.4746L89.8979 63.907L90.1013 63.6283L90.2713 63.7509L89.9286 64.2191Z" fill="#EDCBC3"/>
<path d="M92.3252 64.2163L91.9629 63.723L92.1329 63.6004L92.3586 63.9097L93.9972 62.4746L94.1365 62.6307L92.3252 64.2163Z" fill="#EDCBC3"/>
<path d="M88.4378 57.5747C88.4378 57.5747 88.0588 56.6244 87.4513 57.0592C86.8438 57.4939 87.4513 58.9931 88.2873 59.138C89.1233 59.2829 88.4378 57.5747 88.4378 57.5747Z" fill="#FFB9A9"/>
<path d="M93.833 57.5747C93.833 57.5747 94.212 56.6244 94.8195 57.0592C95.427 57.4939 94.8195 58.9931 93.9974 59.138C93.1754 59.2829 93.833 57.5747 93.833 57.5747Z" fill="#FFB9A9"/>
<path d="M87.6756 58.3649C87.5167 58.1308 87.3607 57.671 87.5251 57.423C87.5864 57.3283 87.7202 57.2252 88.0016 57.2837L87.9598 57.4871C87.8261 57.4592 87.7397 57.4871 87.6979 57.5401C87.6059 57.6794 87.6979 58.0333 87.8484 58.2479L87.6756 58.3649Z" fill="#5254CF"/>
<path d="M94.6553 58.3671L94.4853 58.25C94.6302 58.0355 94.7277 57.6927 94.6358 57.5422C94.594 57.4809 94.5076 57.4614 94.3738 57.4893L94.332 57.2859C94.4159 57.2546 94.5075 57.2513 94.5934 57.2765C94.6793 57.3016 94.7547 57.3537 94.8085 57.4252C94.973 57.6788 94.8141 58.1386 94.6553 58.3671Z" fill="#5254CF"/>
<path d="M91.2617 53.1641H91.0109C89.4257 53.1641 88.1406 54.4491 88.1406 56.0343V58.6761C88.1406 60.2613 89.4257 61.5464 91.0109 61.5464H91.2617C92.8469 61.5464 94.132 60.2613 94.132 58.6761V56.0343C94.132 54.4491 92.8469 53.1641 91.2617 53.1641Z" fill="#FFB9A9"/>
<path d="M94.0522 58.455C94.0048 57.8587 93.9407 57.0394 94.4618 56.9446L94.6123 55.9331C94.7238 55.4761 94.5482 55.1779 94.3643 55.0971C95.0191 54.4367 94.8798 53.4251 94.2445 52.2129C92.0597 52.6281 89.8415 53.0489 88.8495 53.5366C88.1779 53.9351 88.0135 54.4562 87.902 55.0971C87.5843 55.1528 87.5592 55.6154 87.5899 55.8328L87.7125 56.9474C88.3172 56.9084 88.3423 57.58 88.3061 58.4578C88.7101 58.4578 88.6433 57.2094 88.6433 57.2094V55.3535H93.5617L93.6314 57.215C93.6314 57.215 93.6063 58.455 94.0522 58.455Z" fill="#1D2F6F"/>
<path d="M89.7732 58.0112C89.8809 58.0112 89.9683 57.9239 89.9683 57.8162C89.9683 57.7084 89.8809 57.6211 89.7732 57.6211C89.6655 57.6211 89.5781 57.7084 89.5781 57.8162C89.5781 57.9239 89.6655 58.0112 89.7732 58.0112Z" fill="#1D2F6F"/>
<path d="M92.5974 58.0112C92.7051 58.0112 92.7925 57.9239 92.7925 57.8162C92.7925 57.7084 92.7051 57.6211 92.5974 57.6211C92.4897 57.6211 92.4023 57.7084 92.4023 57.8162C92.4023 57.9239 92.4897 58.0112 92.5974 58.0112Z" fill="#1D2F6F"/>
<path d="M90.2324 57.2327C90.2324 57.3359 89.3184 57.3359 89.3184 57.2327C89.3184 57.1296 89.5218 57.0488 89.7754 57.0488C90.029 57.0488 90.2324 57.1296 90.2324 57.2327Z" fill="#1D2F6F"/>
<path d="M93.0471 57.2327C93.0471 57.3331 92.1387 57.3331 92.1387 57.2327C92.1387 57.1324 92.3421 57.0488 92.5929 57.0488C92.8437 57.0488 93.0471 57.1296 93.0471 57.2327Z" fill="#1D2F6F"/>
<path d="M91.0939 58.9908C91.0438 58.9763 90.9973 58.9515 90.9574 58.9179C90.9176 58.8843 90.8853 58.8426 90.8626 58.7957C90.8385 58.7778 90.8083 58.7701 90.7786 58.7743C90.7489 58.7784 90.722 58.7941 90.7038 58.818L90.5449 58.6814C90.573 58.6484 90.6074 58.6212 90.646 58.6014C90.6846 58.5817 90.7268 58.5698 90.7701 58.5664C90.8133 58.5631 90.8568 58.5683 90.8981 58.5818C90.9393 58.5953 90.9774 58.6169 91.0103 58.6452L91.0437 58.687C91.0437 58.7149 91.0911 58.7762 91.1357 58.7845L91.0939 58.9908Z" fill="#5254CF"/>
<path d="M91.279 58.9908L91.2344 58.7845C91.279 58.7845 91.3152 58.7149 91.3291 58.687L91.3598 58.6452C91.3926 58.6169 91.4308 58.5953 91.472 58.5818C91.5132 58.5683 91.5567 58.5631 91.6 58.5664C91.6433 58.5698 91.6854 58.5817 91.7241 58.6014C91.7627 58.6212 91.7971 58.6484 91.8251 58.6814L91.6663 58.818C91.6481 58.7941 91.6212 58.7784 91.5915 58.7743C91.5617 58.7701 91.5316 58.7778 91.5075 58.7957C91.4854 58.8425 91.4536 58.8842 91.4142 58.9178C91.3748 58.9514 91.3287 58.9763 91.279 58.9908Z" fill="#5254CF"/>
<path d="M91.291 60.3301H91.082V60.6784H91.291V60.3301Z" fill="#5254CF"/>
<path d="M90.5195 59.2529C90.5305 59.4225 90.6056 59.5815 90.7295 59.6977C90.8535 59.8139 91.017 59.8786 91.1869 59.8786C91.3569 59.8786 91.5204 59.8139 91.6443 59.6977C91.7683 59.5815 91.8434 59.4225 91.8543 59.2529H90.5195Z" fill="white"/>
<path d="M92.8762 56.3064C92.5765 56.3077 92.2855 56.4071 92.0476 56.5892C91.8096 56.7713 91.6377 57.0262 91.5581 57.3151C91.4447 57.2506 91.3165 57.2167 91.186 57.2167C91.0556 57.2167 90.9274 57.2506 90.814 57.3151C90.7142 56.9872 90.4938 56.7093 90.1971 56.5375C89.9005 56.3657 89.5498 56.3128 89.2156 56.3894C88.8815 56.4661 88.5889 56.6665 88.3968 56.9504C88.2046 57.2343 88.1273 57.5805 88.1804 57.9192C88.2335 58.2578 88.413 58.5637 88.6828 58.7752C88.9525 58.9868 89.2924 59.0881 89.634 59.0588C89.9755 59.0296 90.2933 58.8719 90.5231 58.6176C90.753 58.3633 90.8778 58.0313 90.8725 57.6885C90.8662 57.6351 90.8569 57.5821 90.8447 57.5297C90.9404 57.4593 91.0561 57.4213 91.1749 57.4213C91.2937 57.4213 91.4094 57.4593 91.5051 57.5297C91.4966 57.5786 91.4911 57.6279 91.4884 57.6774C91.4884 57.9497 91.5691 58.2158 91.7204 58.4422C91.8717 58.6686 92.0867 58.845 92.3382 58.9492C92.5898 59.0534 92.8665 59.0807 93.1336 59.0276C93.4006 58.9744 93.6459 58.8433 93.8384 58.6508C94.0309 58.4583 94.1621 58.213 94.2152 57.946C94.2683 57.6789 94.241 57.4021 94.1368 57.1506C94.0326 56.899 93.8562 56.684 93.6298 56.5328C93.4034 56.3815 93.1373 56.3008 92.865 56.3008L92.8762 56.3064ZM89.4959 58.8478C89.2649 58.8478 89.039 58.7792 88.847 58.6508C88.6549 58.5224 88.5052 58.3399 88.4169 58.1264C88.3286 57.9128 88.3057 57.6779 88.351 57.4514C88.3962 57.2248 88.5077 57.0168 88.6713 56.8536C88.8349 56.6904 89.0432 56.5794 89.2699 56.5347C89.4965 56.4899 89.7314 56.5135 89.9447 56.6023C90.158 56.6911 90.3402 56.8411 90.4681 57.0335C90.5961 57.2259 90.6641 57.4519 90.6635 57.683C90.6635 57.8362 90.6333 57.9879 90.5746 58.1294C90.5159 58.2709 90.4298 58.3994 90.3214 58.5076C90.2129 58.6158 90.0842 58.7016 89.9426 58.7599C89.8009 58.8183 89.6491 58.8482 89.4959 58.8478ZM92.8762 58.8478C92.645 58.8483 92.4189 58.7803 92.2264 58.6522C92.034 58.5241 91.8839 58.3418 91.7952 58.1283C91.7065 57.9148 91.6831 57.6798 91.7281 57.4531C91.773 57.2263 91.8843 57.018 92.0477 56.8546C92.2112 56.6911 92.4195 56.5798 92.6463 56.5349C92.873 56.4899 93.108 56.5133 93.3215 56.602C93.535 56.6907 93.7173 56.8408 93.8454 57.0332C93.9735 57.2257 94.0415 57.4518 94.041 57.683C94.0403 57.9917 93.9173 58.2875 93.699 58.5058C93.4807 58.7241 93.1849 58.8471 92.8762 58.8478Z" fill="white"/>
<path d="M98.5758 67.6488H83.8789V50.8926H98.5674L98.5758 67.6488ZM84.0851 67.4398H98.3696V51.1016H84.0963L84.0851 67.4398Z" fill="#F7E6DF"/>
<path d="M126.236 52.5159H103.909C103.805 52.5222 103.701 52.5072 103.603 52.4717C103.505 52.4363 103.416 52.3811 103.34 52.3098C103.264 52.2384 103.204 52.1522 103.162 52.0566C103.121 51.961 103.1 51.8579 103.1 51.7538C103.1 51.6496 103.121 51.5466 103.162 51.451C103.204 51.3553 103.264 51.2692 103.34 51.1978C103.416 51.1264 103.505 51.0713 103.603 51.0358C103.701 51.0004 103.805 50.9853 103.909 50.9916H126.236C126.43 51.0034 126.613 51.0888 126.746 51.2304C126.879 51.3721 126.953 51.5593 126.953 51.7538C126.953 51.9483 126.879 52.1355 126.746 52.2771C126.613 52.4188 126.43 52.5042 126.236 52.5159ZM103.904 51.2006C103.756 51.2006 103.614 51.2593 103.51 51.3639C103.405 51.4684 103.346 51.6101 103.346 51.758C103.346 51.9058 103.405 52.0475 103.51 52.1521C103.614 52.2566 103.756 52.3153 103.904 52.3153H126.236C126.384 52.3153 126.526 52.2566 126.63 52.1521C126.735 52.0475 126.793 51.9058 126.793 51.758C126.793 51.6101 126.735 51.4684 126.63 51.3639C126.526 51.2593 126.384 51.2006 126.236 51.2006H103.904Z" fill="#8B5991"/>
<path d="M113.925 55.3138H103.909C103.805 55.3201 103.701 55.305 103.603 55.2696C103.505 55.2341 103.416 55.179 103.34 55.1076C103.264 55.0362 103.204 54.9501 103.162 54.8545C103.121 54.7588 103.1 54.6558 103.1 54.5516C103.1 54.4475 103.121 54.3444 103.162 54.2488C103.204 54.1532 103.264 54.067 103.34 53.9957C103.416 53.9243 103.505 53.8692 103.603 53.8337C103.701 53.7982 103.805 53.7832 103.909 53.7895H113.925C114.029 53.7832 114.133 53.7982 114.231 53.8337C114.329 53.8692 114.418 53.9243 114.494 53.9957C114.57 54.067 114.63 54.1532 114.672 54.2488C114.713 54.3444 114.734 54.4475 114.734 54.5516C114.734 54.6558 114.713 54.7588 114.672 54.8545C114.63 54.9501 114.57 55.0362 114.494 55.1076C114.418 55.179 114.329 55.2341 114.231 55.2696C114.133 55.305 114.029 55.3201 113.925 55.3138ZM103.909 53.9985C103.761 53.9985 103.62 54.0572 103.515 54.1617C103.411 54.2662 103.352 54.408 103.352 54.5558C103.352 54.7036 103.411 54.8454 103.515 54.9499C103.62 55.0544 103.761 55.1131 103.909 55.1131H113.925C114.072 55.1131 114.214 55.0544 114.319 54.9499C114.423 54.8454 114.482 54.7036 114.482 54.5558C114.482 54.408 114.423 54.2662 114.319 54.1617C114.214 54.0572 114.072 53.9985 113.925 53.9985H103.909Z" fill="#8B5991"/>
<path d="M88.2064 74.4599H84.436C84.2973 74.4591 84.1645 74.4037 84.0664 74.3056C83.9683 74.2075 83.9128 74.0747 83.9121 73.936V73.4594C83.9121 73.3205 83.9673 73.1872 84.0656 73.089C84.1638 72.9907 84.2971 72.9355 84.436 72.9355H88.2036C88.3428 72.9355 88.4763 72.9906 88.575 73.0888C88.6737 73.187 88.7295 73.3202 88.7303 73.4594V73.936C88.7295 74.0747 88.6741 74.2075 88.576 74.3056C88.4779 74.4037 88.3451 74.4591 88.2064 74.4599ZM84.436 73.1362C84.3525 73.1362 84.2724 73.1694 84.2133 73.2284C84.1543 73.2875 84.1211 73.3676 84.1211 73.4511V73.9276C84.1204 73.9696 84.128 74.0112 84.1434 74.0502C84.1589 74.0892 84.1819 74.1248 84.2112 74.1549C84.2405 74.1849 84.2754 74.2089 84.314 74.2253C84.3526 74.2418 84.394 74.2505 84.436 74.2509H88.2036C88.2873 74.2509 88.3677 74.2178 88.4272 74.1588C88.4867 74.0998 88.5205 74.0197 88.5213 73.936V73.4594C88.5213 73.4179 88.513 73.3767 88.497 73.3383C88.481 73.2999 88.4576 73.2651 88.428 73.2358C88.3985 73.2065 88.3635 73.1834 88.3249 73.1677C88.2864 73.1521 88.2452 73.1442 88.2036 73.1445L84.436 73.1362Z" fill="#1D2F6F"/>
<path d="M88.2064 78.1522H84.436C84.2971 78.1522 84.1638 78.097 84.0656 77.9988C83.9673 77.9005 83.9121 77.7673 83.9121 77.6283V77.1518C83.9121 77.0129 83.9673 76.8796 84.0656 76.7814C84.1638 76.6831 84.2971 76.6279 84.436 76.6279H88.2036C88.3428 76.6279 88.4763 76.683 88.575 76.7812C88.6737 76.8794 88.7295 77.0126 88.7303 77.1518V77.6283C88.7295 77.7671 88.6741 77.8999 88.576 77.998C88.4779 78.0961 88.3451 78.1515 88.2064 78.1522ZM84.436 76.8425C84.3527 76.8432 84.273 76.8766 84.2141 76.9355C84.1552 76.9944 84.1218 77.0741 84.1211 77.1574V77.6339C84.1218 77.7172 84.1552 77.7969 84.2141 77.8558C84.273 77.9147 84.3527 77.9481 84.436 77.9488H88.2036C88.2873 77.9488 88.3677 77.9157 88.4272 77.8567C88.4867 77.7978 88.5205 77.7177 88.5213 77.6339V77.1574C88.5205 77.0736 88.4867 76.9935 88.4272 76.9346C88.3677 76.8756 88.2873 76.8425 88.2036 76.8425H84.436Z" fill="#1D2F6F"/>
<path d="M88.2064 81.8554H84.436C84.2971 81.8554 84.1638 81.8002 84.0656 81.7019C83.9673 81.6037 83.9121 81.4704 83.9121 81.3315V80.8549C83.9128 80.7162 83.9683 80.5834 84.0664 80.4853C84.1645 80.3872 84.2973 80.3318 84.436 80.3311H88.2036C88.3428 80.3311 88.4763 80.3862 88.575 80.4843C88.6737 80.5825 88.7295 80.7157 88.7303 80.8549V81.3315C88.7295 81.4702 88.6741 81.603 88.576 81.7011C88.4779 81.7992 88.3451 81.8546 88.2064 81.8554ZM84.436 80.5401C84.3527 80.5408 84.273 80.5742 84.2141 80.6331C84.1552 80.692 84.1218 80.7717 84.1211 80.8549V81.3315C84.1211 81.415 84.1543 81.4951 84.2133 81.5541C84.2724 81.6132 84.3525 81.6464 84.436 81.6464H88.2036C88.2452 81.6467 88.2864 81.6389 88.3249 81.6232C88.3635 81.6075 88.3985 81.5844 88.428 81.5551C88.4576 81.5258 88.481 81.491 88.497 81.4526C88.513 81.4142 88.5213 81.3731 88.5213 81.3315V80.8549C88.5205 80.7712 88.4867 80.6911 88.4272 80.6321C88.3677 80.5731 88.2873 80.5401 88.2036 80.5401H84.436Z" fill="#1D2F6F"/>
<path d="M126.779 59.166H109.9V59.375H126.779V59.166Z" fill="#DBB3A7"/>
<path d="M107.783 59.166H103.316V59.375H107.783V59.166Z" fill="#DBB3A7"/>
<path d="M126.782 61.9434H122.398V62.1524H126.782V61.9434Z" fill="#DBB3A7"/>
<path d="M119.632 61.9434H103.316V62.1524H119.632V61.9434Z" fill="#DBB3A7"/>
<path d="M126.781 64.7197H116.133V64.9287H126.781V64.7197Z" fill="#DBB3A7"/>
<path d="M114.643 64.7197H110.586V64.9287H114.643V64.7197Z" fill="#DBB3A7"/>
<path d="M108.982 64.7197H103.316V64.9287H108.982V64.7197Z" fill="#DBB3A7"/>
<path d="M126.782 67.4951H118.689V67.7041H126.782V67.4951Z" fill="#DBB3A7"/>
<path d="M115.419 67.4951H103.316V67.7041H115.419V67.4951Z" fill="#DBB3A7"/>
<path d="M126.202 74.25H119.088V74.459H126.202V74.25Z" fill="#DBB3A7"/>
<path d="M116.137 74.25H105.447V74.459H116.137V74.25Z" fill="#DBB3A7"/>
<path d="M100.883 74.25H90.6172V74.459H100.883V74.25Z" fill="#DBB3A7"/>
<path d="M126.198 77.9492H113.736V78.1582H126.198V77.9492Z" fill="#DBB3A7"/>
<path d="M112.01 77.9492H98.0488V78.1582H112.01V77.9492Z" fill="#DBB3A7"/>
<path d="M95.7502 77.9492H90.6172V78.1582H95.7502V77.9492Z" fill="#DBB3A7"/>
<path d="M126.199 81.6455H122.398V81.8545H126.199V81.6455Z" fill="#DBB3A7"/>
<path d="M119.622 81.6455H109.682V81.8545H119.622V81.6455Z" fill="#DBB3A7"/>
<path d="M107.421 81.6455H90.6172V81.8545H107.421V81.6455Z" fill="#DBB3A7"/>
<path d="M115.361 99.9668H83.7793V100.176H115.361V99.9668Z" fill="#DBB3A7"/>
<path d="M95.0272 87.8493H84.7416C84.6219 87.8691 84.4994 87.8625 84.3825 87.8302C84.2656 87.7978 84.1571 87.7404 84.0646 87.6619C83.9721 87.5834 83.8978 87.4858 83.8469 87.3757C83.7959 87.2656 83.7695 87.1458 83.7695 87.0245C83.7695 86.9032 83.7959 86.7833 83.8469 86.6733C83.8978 86.5632 83.9721 86.4655 84.0646 86.387C84.1571 86.3086 84.2656 86.2511 84.3825 86.2188C84.4994 86.1864 84.6219 86.1799 84.7416 86.1996H95.0272C95.1469 86.1799 95.2694 86.1864 95.3863 86.2188C95.5032 86.2511 95.6117 86.3086 95.7041 86.387C95.7966 86.4655 95.8709 86.5632 95.9219 86.6733C95.9728 86.7833 95.9992 86.9032 95.9992 87.0245C95.9992 87.1458 95.9728 87.2656 95.9219 87.3757C95.8709 87.4858 95.7966 87.5834 95.7041 87.6619C95.6117 87.7404 95.5032 87.7978 95.3863 87.8302C95.2694 87.8625 95.1469 87.8691 95.0272 87.8493ZM84.7388 86.4086C84.5755 86.4086 84.4188 86.4735 84.3033 86.589C84.1878 86.7045 84.123 86.8611 84.123 87.0245C84.123 87.1878 84.1878 87.3445 84.3033 87.46C84.4188 87.5754 84.5755 87.6403 84.7388 87.6403H95.0272C95.1905 87.6403 95.3472 87.5754 95.4627 87.46C95.5781 87.3445 95.643 87.1878 95.643 87.0245C95.643 86.8611 95.5781 86.7045 95.4627 86.589C95.3472 86.4735 95.1905 86.4086 95.0272 86.4086H84.7388Z" fill="#8B5991"/>
<path d="M117.151 87.8493H98.7592C98.6395 87.8691 98.517 87.8625 98.4001 87.8302C98.2832 87.7978 98.1747 87.7404 98.0822 87.6619C97.9897 87.5834 97.9154 87.4858 97.8645 87.3757C97.8135 87.2656 97.7871 87.1458 97.7871 87.0245C97.7871 86.9032 97.8135 86.7833 97.8645 86.6733C97.9154 86.5632 97.9897 86.4655 98.0822 86.387C98.1747 86.3086 98.2832 86.2511 98.4001 86.2188C98.517 86.1864 98.6395 86.1799 98.7592 86.1996H117.151C117.271 86.1799 117.393 86.1864 117.51 86.2188C117.627 86.2511 117.736 86.3086 117.828 86.387C117.921 86.4655 117.995 86.5632 118.046 86.6733C118.097 86.7833 118.123 86.9032 118.123 87.0245C118.123 87.1458 118.097 87.2656 118.046 87.3757C117.995 87.4858 117.921 87.5834 117.828 87.6619C117.736 87.7404 117.627 87.7978 117.51 87.8302C117.393 87.8625 117.271 87.8691 117.151 87.8493ZM98.7592 86.4086C98.5958 86.4086 98.4392 86.4735 98.3237 86.589C98.2082 86.7045 98.1433 86.8611 98.1433 87.0245C98.1433 87.1878 98.2082 87.3445 98.3237 87.46C98.4392 87.5754 98.5958 87.6403 98.7592 87.6403H117.151C117.315 87.6403 117.471 87.5754 117.587 87.46C117.702 87.3445 117.767 87.1878 117.767 87.0245C117.767 86.8611 117.702 86.7045 117.587 86.589C117.471 86.4735 117.315 86.4086 117.151 86.4086H98.7592Z" fill="#8B5991"/>
<path d="M126.959 96.5205H83.9277V96.7295H126.959V96.5205Z" fill="#DBB3A7"/>
<path d="M115.034 40.1501H95.5834C95.3536 40.1501 95.1332 40.0588 94.9706 39.8962C94.8081 39.7337 94.7168 39.5133 94.7168 39.2834V36.8841C94.7168 36.654 94.808 36.4333 94.9705 36.2703C95.1329 36.1073 95.3533 36.0154 95.5834 36.0146H115.034C115.264 36.0154 115.485 36.1073 115.647 36.2703C115.81 36.4333 115.901 36.654 115.901 36.8841V39.2834C115.901 39.3972 115.879 39.5099 115.835 39.6151C115.792 39.7202 115.728 39.8157 115.647 39.8962C115.567 39.9767 115.471 40.0405 115.366 40.0841C115.261 40.1276 115.148 40.1501 115.034 40.1501ZM95.5834 36.2236C95.4088 36.2244 95.2415 36.2943 95.1182 36.4181C94.995 36.5418 94.9258 36.7094 94.9258 36.8841V39.2834C94.9258 39.4578 94.9951 39.6251 95.1184 39.7484C95.2418 39.8718 95.409 39.9411 95.5834 39.9411H115.034C115.209 39.9411 115.376 39.8718 115.499 39.7484C115.623 39.6251 115.692 39.4578 115.692 39.2834V36.8841C115.692 36.7094 115.623 36.5418 115.5 36.4181C115.376 36.2943 115.209 36.2244 115.034 36.2236H95.5834Z" fill="#E2CFC7"/>
<path d="M175.656 60.2969H100.416C99.3989 60.2969 98.5742 61.1216 98.5742 62.1389V109.498C98.5742 110.516 99.3989 111.34 100.416 111.34H175.656C176.674 111.34 177.498 110.516 177.498 109.498V62.1389C177.498 61.1216 176.674 60.2969 175.656 60.2969Z" fill="#1D2F6F"/>
<path d="M174.271 63.0732H101.795V108.568H174.271V63.0732Z" fill="white"/>
<path d="M174.271 63.0732H101.795V108.568H174.271V63.0732Z" fill="#EFE1DC"/>
<path d="M174.271 63.0732H101.795V64.6254H174.271V63.0732Z" fill="white"/>
<path d="M89.707 111.382C89.7337 112.093 90.0346 112.767 90.5468 113.261C91.059 113.756 91.7427 114.033 92.4547 114.035H183.615C184.327 114.033 185.01 113.756 185.522 113.261C186.034 112.767 186.334 112.093 186.36 111.382H89.707Z" fill="#1D2F6F"/>
<path d="M175.658 111.238H100.418V111.447H175.658V111.238Z" fill="#8B5991"/>
<path d="M138.036 62.2672C137.896 62.2672 137.759 62.2257 137.643 62.1479C137.526 62.0701 137.436 61.9596 137.382 61.8302C137.328 61.7009 137.314 61.5586 137.342 61.4213C137.369 61.284 137.436 61.1579 137.535 61.0589C137.634 60.9599 137.761 60.8925 137.898 60.8652C138.035 60.8379 138.177 60.8519 138.307 60.9054C138.436 60.959 138.547 61.0497 138.624 61.1661C138.702 61.2825 138.744 61.4194 138.744 61.5594C138.744 61.7471 138.669 61.9271 138.536 62.0599C138.404 62.1926 138.224 62.2672 138.036 62.2672ZM138.036 61.0633C137.937 61.0633 137.841 61.0927 137.759 61.1476C137.676 61.2025 137.613 61.2806 137.575 61.3719C137.537 61.4632 137.527 61.5637 137.547 61.6605C137.566 61.7573 137.614 61.8462 137.684 61.9159C137.754 61.9855 137.843 62.0328 137.94 62.0517C138.037 62.0707 138.138 62.0604 138.229 62.0222C138.32 61.984 138.398 61.9197 138.452 61.8373C138.507 61.7549 138.535 61.6581 138.535 61.5594C138.533 61.4283 138.48 61.3031 138.387 61.2112C138.293 61.1193 138.167 61.0682 138.036 61.0689V61.0633Z" fill="#8B5991"/>
<path d="M103.173 63.8062C103.173 63.8718 103.154 63.9359 103.117 63.9905C103.081 64.045 103.029 64.0875 102.968 64.1126C102.908 64.1377 102.841 64.1443 102.777 64.1315C102.712 64.1187 102.653 64.0871 102.607 64.0407C102.561 63.9943 102.529 63.9353 102.516 63.8709C102.503 63.8066 102.51 63.7399 102.535 63.6793C102.56 63.6187 102.603 63.5669 102.657 63.5305C102.712 63.4941 102.776 63.4746 102.841 63.4746C102.885 63.4742 102.928 63.4826 102.969 63.4991C103.009 63.5156 103.046 63.5401 103.077 63.5709C103.108 63.6018 103.132 63.6385 103.149 63.6789C103.165 63.7193 103.173 63.7626 103.173 63.8062Z" fill="#5254CF"/>
<path d="M104.144 64.1378C104.327 64.1378 104.476 63.9894 104.476 63.8062C104.476 63.6231 104.327 63.4746 104.144 63.4746C103.961 63.4746 103.812 63.6231 103.812 63.8062C103.812 63.9894 103.961 64.1378 104.144 64.1378Z" fill="#5254CF"/>
<path d="M105.445 64.1378C105.628 64.1378 105.777 63.9894 105.777 63.8062C105.777 63.6231 105.628 63.4746 105.445 63.4746C105.262 63.4746 105.113 63.6231 105.113 63.8062C105.113 63.9894 105.262 64.1378 105.445 64.1378Z" fill="#5254CF"/>
<path d="M131.685 90.4404H145.596V70.878H131.685V90.4404Z" fill="#FFB9A9"/>
<path d="M145.597 79.6243C136.027 83.2693 131.686 80.0952 131.686 80.0952V70.877H145.597V79.6243Z" fill="#FFB9A9"/>
<path d="M174.271 96.7795C173.547 94.7898 173.081 93.5358 173.012 93.3909C172.104 91.5005 170.582 89.9741 168.695 89.0615C166.807 88.1489 164.665 87.9042 162.62 88.3674C160.575 88.8307 158.748 89.9745 157.438 91.6115C156.128 93.2485 155.412 95.2819 155.408 97.3786C155.409 98.0345 155.48 98.6885 155.62 99.3293L155.536 99.3516L156.002 100.628L158.755 108.556H174.271V96.7795Z" fill="#FFB9A9"/>
<path d="M121.848 97.3804C121.844 95.2834 121.129 93.2497 119.819 91.6121C118.509 89.9746 116.682 88.8304 114.637 88.3668C112.592 87.9032 110.45 88.1477 108.562 89.0602C106.674 89.9728 105.152 91.4993 104.244 93.3899C104.141 93.6045 103.183 96.2212 101.795 100.058V108.566H118.501L121.254 100.638L121.72 99.3617L121.636 99.3395C121.776 98.6959 121.847 98.0391 121.848 97.3804Z" fill="#FFB9A9"/>
<path d="M174.271 96.3381C173.496 94.4431 172.989 93.2086 172.936 93.0999C171.406 89.9092 167.625 87.1253 163.832 86.5039C158.73 86.5039 155.408 92.2862 155.408 97.3719C155.409 98.0278 155.48 98.6817 155.62 99.3226L155.536 99.3449L156.002 100.621L158.755 108.549H174.271V96.3381Z" fill="white"/>
<path d="M121.848 97.3787C121.848 92.2819 118.526 86.5107 113.424 86.5107C109.631 87.1322 105.85 89.9161 104.32 93.1068C104.242 93.2628 103.205 95.7876 101.795 99.257V108.576H118.515L121.265 100.648L121.731 99.3712L121.647 99.3489C121.785 98.7013 121.852 98.0408 121.848 97.3787Z" fill="white"/>
<path d="M172.541 108.568H104.778L104.254 96.7109C104.254 96.7109 103.112 89.2342 112.845 86.6454L113.286 86.5451L131.644 83.0283C135.142 86.194 142.036 86.0937 145.6 83.0283L164.037 86.5451L164.474 86.6454C174.208 89.2342 173.051 96.7109 173.051 96.7109L172.541 108.568Z" fill="white"/>
<path d="M137.063 78.7904L137.668 78.8154C144.286 79.5623 150.18 75.9257 150.946 69.1346L151.749 62.0397C152.515 55.2486 147.728 49.0817 141.11 48.3349L140.508 48.268C133.889 47.5212 127.848 52.4647 127.081 59.253L126.282 66.3507C125.515 73.1362 130.445 78.0435 137.063 78.7904Z" fill="#1D2F6F"/>
<path d="M135.711 80.5713C141.524 81.2262 148.226 77.1744 148.881 71.3753L149.996 61.5328C150.21 59.5727 149.64 57.6072 148.41 56.0663C147.18 54.5253 145.389 53.5341 143.43 53.3093L137.94 52.6851C133.398 52.1724 129.837 50.361 129.327 54.895L127.741 68.9843C127.086 74.789 130.455 79.9777 135.711 80.5713Z" fill="#FFB9A9"/>
<path d="M145.04 67.804C144.986 68.2515 145.021 68.7052 145.144 69.1391C145.266 69.5729 145.473 69.9782 145.753 70.3316C146.033 70.6849 146.38 70.9794 146.774 71.198C147.168 71.4166 147.602 71.5549 148.05 71.605C151.254 73.3829 156.106 64.5659 150.984 63.7466C149.086 63.5348 145.252 65.9146 145.04 67.804Z" fill="#FFB9A9"/>
<path d="M148.956 69.7925H148.848V69.5139C150.812 69.5947 151.615 67.2845 151.682 66.4485C151.7 66.2725 151.671 66.0947 151.596 65.9342C151.522 65.7737 151.405 65.6365 151.258 65.5373C151.037 65.4088 150.785 65.3412 150.529 65.3412C150.273 65.3412 150.022 65.4088 149.801 65.5373L149.675 65.2893C149.939 65.135 150.239 65.0537 150.545 65.0537C150.85 65.0537 151.15 65.135 151.414 65.2893C151.603 65.4157 151.754 65.5905 151.852 65.7954C151.95 66.0004 151.991 66.2278 151.971 66.4541C151.899 67.3682 151.052 69.7925 148.956 69.7925Z" fill="#FFB9A9"/>
<path d="M150.816 68.728C150.62 68.4951 150.353 68.3328 150.056 68.2659C149.759 68.199 149.448 68.2311 149.171 68.3574L149.068 68.0982C149.403 67.9532 149.775 67.9196 150.129 68.0024C150.484 68.0852 150.803 68.28 151.039 68.558L150.816 68.728Z" fill="#FFB9A9"/>
<path d="M128.626 61.1169C128.626 61.1169 128.088 60.724 126.909 61.0417L126.764 57.4413C126.539 55.7888 127.299 54.8246 128.002 54.6295C128.002 54.6295 127.188 54.245 126.486 52.0296C125.783 49.8142 127.879 43.9482 127.879 43.9482C136.724 46.1553 145.666 48.3456 148.734 51.4332C151.031 53.1052 151.446 54.9946 151.574 57.2852C152.708 57.6168 153.553 58.8876 153.227 60.0858L151.953 64.0485C149.635 63.5915 148.35 64.9318 147.993 68.7858C146.043 68.5657 146.943 64.2352 146.943 64.2352L147.684 57.7422L129.387 55.6773L128.626 61.1169Z" fill="#1D2F6F"/>
<path d="M141.608 66.2355C141.592 66.3784 141.619 66.5229 141.684 66.6507C141.75 66.7785 141.853 66.8838 141.979 66.9535C142.104 67.0231 142.248 67.0539 142.391 67.042C142.535 67.03 142.671 66.9758 142.784 66.8863C142.896 66.7967 142.98 66.6758 143.024 66.5388C143.067 66.4019 143.07 66.255 143.03 66.1167C142.99 65.9785 142.911 65.8551 142.801 65.7622C142.691 65.6692 142.556 65.6109 142.413 65.5946C142.318 65.5837 142.222 65.5917 142.13 65.618C142.039 65.6443 141.953 65.6885 141.878 65.7481C141.803 65.8076 141.741 65.8813 141.695 65.9649C141.648 66.0486 141.619 66.1405 141.608 66.2355Z" fill="#1D2F6F"/>
<path d="M131.194 65.0547C131.178 65.1978 131.204 65.3426 131.269 65.4708C131.335 65.599 131.437 65.7049 131.563 65.7749C131.689 65.845 131.833 65.8761 131.976 65.8643C132.12 65.8525 132.257 65.7984 132.369 65.7087C132.482 65.6191 132.566 65.498 132.61 65.3607C132.653 65.2235 132.656 65.0764 132.616 64.938C132.576 64.7996 132.496 64.6761 132.386 64.5833C132.275 64.4905 132.14 64.4324 131.997 64.4165C131.806 64.3954 131.614 64.4506 131.464 64.5701C131.314 64.6897 131.217 64.8639 131.194 65.0547Z" fill="#1D2F6F"/>
<path d="M140.873 63.9644C140.829 64.3406 144.217 64.7224 144.248 64.3462C144.279 63.97 143.571 63.5799 142.637 63.4768C141.704 63.3737 140.915 63.591 140.873 63.9644Z" fill="#1D2F6F"/>
<path d="M130.5 62.7945C130.456 63.1652 133.808 63.5441 133.844 63.1707C133.881 62.7973 133.17 62.4128 132.242 62.3069C131.314 62.201 130.542 62.4211 130.5 62.7945Z" fill="#1D2F6F"/>
<path d="M136.947 69.837L136.922 69.5583C137.262 69.5277 137.499 69.1097 137.502 69.1041L137.518 69.0734L137.549 69.0539C137.655 68.9795 137.775 68.9271 137.902 68.9001C138.029 68.8731 138.16 68.8719 138.288 68.8966C138.415 68.9213 138.536 68.9714 138.644 69.0439C138.752 69.1164 138.844 69.2099 138.914 69.3187L138.686 69.4747C138.585 69.3206 138.427 69.2127 138.247 69.1746C138.067 69.1365 137.879 69.1713 137.724 69.2713C137.645 69.4176 137.534 69.5444 137.4 69.6423C137.265 69.7402 137.111 69.8067 136.947 69.837Z" fill="#FFB9A9"/>
<path d="M136.367 69.7724C136.215 69.706 136.08 69.6068 135.971 69.4821C135.861 69.3573 135.781 69.21 135.735 69.0506C135.672 68.9845 135.596 68.9315 135.513 68.8948C135.429 68.8581 135.339 68.8384 135.248 68.8369C135.157 68.8353 135.066 68.8519 134.981 68.8858C134.896 68.9196 134.819 68.9699 134.754 69.0339L134.564 68.8277C134.658 68.7377 134.769 68.6674 134.89 68.6209C135.012 68.5744 135.141 68.5528 135.271 68.5572C135.401 68.5616 135.529 68.592 135.647 68.6466C135.765 68.7012 135.87 68.7789 135.958 68.8751L135.983 68.9029V68.9364C135.983 68.9364 136.117 69.4018 136.445 69.5077L136.367 69.7724Z" fill="#FFB9A9"/>
<path d="M135.941 74.9699L135.797 76.2549L136.074 76.2859L136.218 75.0009L135.941 74.9699Z" fill="#FFB9A9"/>
<path d="M138.981 71.2966C138.855 71.9035 138.506 72.4413 138.004 72.8046C137.501 73.168 136.881 73.3307 136.265 73.261C135.649 73.1913 135.081 72.8941 134.673 72.4277C134.265 71.9612 134.045 71.3591 134.057 70.7393L138.981 71.2966Z" fill="white"/>
<path d="M143.948 61.1542C142.842 61.0298 141.726 61.292 140.79 61.8964C139.855 62.5008 139.157 63.4102 138.815 64.4703C138.41 64.0896 137.892 63.8511 137.339 63.7908C136.786 63.7305 136.228 63.8516 135.75 64.1359C135.648 62.9451 135.107 61.8347 134.232 61.02C133.358 60.2053 132.212 59.7442 131.017 59.7261C129.822 59.7081 128.663 60.1344 127.764 60.9223C126.865 61.7103 126.291 62.8038 126.153 63.991C126.011 65.261 126.379 66.5353 127.177 67.5339C127.974 68.5324 129.135 69.1735 130.405 69.3164C130.59 69.3379 130.776 69.3482 130.963 69.347C132.145 69.345 133.286 68.9084 134.168 68.1203C135.049 67.3321 135.611 66.2473 135.744 65.0723C135.77 64.8391 135.777 64.6043 135.767 64.37C136.834 63.7514 137.971 63.8768 138.765 64.7016C138.704 64.9304 138.658 65.1632 138.629 65.3983C138.488 66.6681 138.856 67.942 139.654 68.9404C140.451 69.9388 141.612 70.5801 142.881 70.7236C143.066 70.7453 143.252 70.7556 143.438 70.7543C144.666 70.7462 145.844 70.2697 146.732 69.4222C147.62 68.5747 148.15 67.4202 148.215 66.1944C148.281 64.9687 147.875 63.7644 147.082 62.8276C146.289 61.8908 145.168 61.2922 143.948 61.1542ZM135.524 65.0555C135.425 65.9405 135.073 66.7779 134.508 67.4668C133.944 68.1557 133.193 68.6666 132.345 68.938C131.496 69.2094 130.588 69.2296 129.729 68.9962C128.869 68.7628 128.096 68.2857 127.502 67.6226C126.907 66.9595 126.518 66.1386 126.379 65.259C126.241 64.3793 126.36 63.4784 126.723 62.665C127.085 61.8516 127.675 61.1604 128.421 60.6748C129.168 60.1892 130.039 59.9298 130.929 59.9281C131.105 59.9286 131.281 59.9388 131.456 59.9587C132.67 60.0973 133.78 60.7115 134.543 61.6668C135.305 62.6221 135.658 63.8406 135.524 65.0555ZM147.992 66.4489C147.89 67.3554 147.522 68.2114 146.934 68.9087C146.346 69.606 145.564 70.1132 144.688 70.3662C143.811 70.6192 142.88 70.6066 142.01 70.33C141.141 70.0534 140.373 69.5253 139.804 68.8124C139.235 68.0995 138.89 67.2338 138.813 66.3249C138.736 65.4159 138.93 64.5046 139.371 63.706C139.812 62.9074 140.48 62.2576 141.29 61.8386C142.101 61.4196 143.017 61.2503 143.923 61.3521C145.138 61.4893 146.249 62.1031 147.012 63.0587C147.775 64.0143 148.127 65.2336 147.992 66.4489Z" fill="white"/>
<path d="M165.349 95.7822L163.945 108.555L164.153 108.578L165.556 95.805L165.349 95.7822Z" fill="#F7E5DC"/>
<path d="M111.895 95.7827L111.688 95.8057L113.102 108.577L113.31 108.554L111.895 95.7827Z" fill="#F7E5DC"/>
<path d="M138.48 87.2666C134.796 87.2666 131.274 85.9736 128.699 83.6439L128.839 83.4906C131.583 85.9624 135.426 87.2526 139.375 87.0241C142.8 86.8263 145.84 85.4915 147.713 83.3652L147.869 83.5046C145.96 85.6726 142.869 87.0297 139.389 87.2331C139.085 87.2582 138.779 87.2666 138.48 87.2666Z" fill="#F7E5DC"/>
<path d="M140.041 105.107C141.912 104.332 142.8 102.187 142.025 100.316C141.25 98.4445 139.105 97.5559 137.234 98.331C135.363 99.1061 134.474 101.251 135.249 103.122C136.024 104.994 138.169 105.882 140.041 105.107Z" fill="#5254CF"/>
<path d="M139.201 100.325H136.754C136.65 100.335 136.553 100.386 136.485 100.466C136.418 100.546 136.384 100.65 136.392 100.754V102.674C136.383 102.779 136.417 102.883 136.485 102.964C136.552 103.044 136.649 103.094 136.754 103.104H139.201C139.305 103.094 139.402 103.043 139.47 102.963C139.537 102.883 139.571 102.779 139.563 102.674V100.746C139.568 100.643 139.533 100.542 139.466 100.464C139.398 100.385 139.304 100.336 139.201 100.325Z" fill="white"/>
<path d="M140.499 100.746L140.045 101.2C139.992 101.254 139.962 101.327 139.961 101.403V102.036C139.961 102.073 139.968 102.11 139.982 102.145C139.997 102.179 140.018 102.21 140.045 102.236L140.499 102.691C140.537 102.734 140.588 102.765 140.645 102.778C140.701 102.791 140.761 102.787 140.814 102.765C140.868 102.742 140.914 102.704 140.944 102.655C140.975 102.606 140.99 102.548 140.986 102.49V100.949C140.991 100.891 140.976 100.833 140.946 100.783C140.915 100.733 140.87 100.694 140.816 100.672C140.762 100.649 140.702 100.644 140.645 100.658C140.589 100.671 140.537 100.702 140.499 100.746Z" fill="white"/>
<path d="M126.746 105.107C128.617 104.332 129.505 102.187 128.73 100.316C127.955 98.4445 125.81 97.5559 123.939 98.331C122.068 99.1061 121.179 101.251 121.954 103.122C122.729 104.994 124.874 105.882 126.746 105.107Z" fill="#5254CF"/>
<path d="M126.724 101.839H126.446C126.406 102.103 126.273 102.343 126.071 102.517C125.868 102.691 125.61 102.787 125.344 102.787C125.077 102.787 124.819 102.691 124.617 102.517C124.415 102.343 124.281 102.103 124.242 101.839H123.963C123.966 102.181 124.094 102.51 124.324 102.763C124.554 103.016 124.868 103.176 125.209 103.213V103.6H124.637V103.879H126.067V103.6H125.509V103.213C125.844 103.17 126.151 103.007 126.375 102.754C126.598 102.501 126.723 102.176 126.724 101.839Z" fill="white"/>
<path d="M126.235 100.233C126.235 99.7417 125.837 99.3438 125.346 99.3438C124.855 99.3438 124.457 99.7417 124.457 100.233V101.782C124.457 102.273 124.855 102.671 125.346 102.671C125.837 102.671 126.235 102.273 126.235 101.782V100.233Z" fill="white"/>
<path d="M154.529 104.312C155.962 102.88 155.962 100.558 154.529 99.1256C153.097 97.6935 150.775 97.6935 149.343 99.1256C147.911 100.558 147.911 102.88 149.343 104.312C150.775 105.744 153.097 105.744 154.529 104.312Z" fill="#1D2F6F"/>
<path d="M151.293 99.7256L151.441 101.08L150.914 101.264C151.022 101.6 151.203 101.909 151.444 102.167C151.685 102.426 151.98 102.628 152.308 102.76L152.561 102.242L153.924 102.484C153.924 102.484 153.876 103.557 153.116 103.733C152.101 103.869 151.254 103.209 150.817 102.66C150.379 102.111 149.674 100.921 150.081 100.202C150.41 99.7117 151.293 99.7256 151.293 99.7256Z" fill="white"/>
<path d="M72.2648 75.2588C72.2648 75.2588 71.0108 75.6238 70.983 76.6298C70.9551 77.6358 71.9723 78.0873 72.5129 78.2768C73.0535 78.4662 73.6638 75.4929 72.2648 75.2588Z" fill="#FFB9A9"/>
<path d="M85.7602 78.9882C85.7602 78.9882 84.5648 75.6804 85.6014 74.3094C86.638 72.9384 87.6273 73.1724 87.9338 73.4483L88.2404 75.4909C88.2404 75.4909 89.2436 77.2828 89.2742 77.5447C89.3049 77.8067 90.0796 82.2263 90.0796 82.2263C90.0796 82.2263 90.4864 90.7563 90.6035 91.7623C90.7205 92.7683 90.6035 102.747 90.6035 102.747L79.9779 105.116L81.388 96.2126C81.388 96.2126 77.0324 92.7543 76.6506 90.1488L72.4539 88.9255C71.2055 88.5102 71.0606 86.8187 72.4539 86.3004C70.5032 86.3255 70.6231 83.9624 72.2783 83.288C70.4614 83.1013 70.3611 80.5794 72.5904 79.9635L85.7602 78.9882Z" fill="#FFB9A9"/>
<path d="M84.8357 88.8147H73.023L71.8164 70.0576H86.0451L84.8357 88.8147Z" fill="white"/>
<path d="M85.4185 82.6163L85.9341 74.3594H71.9199L72.4382 82.6163H85.4185Z" fill="#5254CF"/>
<path d="M71.6587 68.5488L71.3828 70.0592H86.4754L86.1967 68.5488H71.6587Z" fill="#1D2F6F"/>
<path d="M84.7365 66.7451H84.0315H75.5851H73.0799L72.6953 68.8379H75.5795H84.0287H85.1211L84.7365 66.7451Z" fill="#1D2F6F"/>
<path d="M85.0679 68.4414H72.748V68.6504H85.0679V68.4414Z" fill="#8B5991"/>
<path d="M80.7004 81.5287C80.0991 81.5287 79.5113 81.3504 79.0113 81.0164C78.5114 80.6823 78.1217 80.2075 77.8916 79.6519C77.6615 79.0964 77.6013 78.4851 77.7186 77.8954C77.8359 77.3056 78.1254 76.7639 78.5506 76.3387C78.9758 75.9135 79.5175 75.624 80.1073 75.5067C80.697 75.3894 81.3083 75.4496 81.8639 75.6797C82.4194 75.9098 82.8942 76.2995 83.2283 76.7994C83.5624 77.2994 83.7407 77.8872 83.7407 78.4885C83.7392 79.2944 83.4184 80.0668 82.8486 80.6367C82.2787 81.2065 81.5063 81.5273 80.7004 81.5287ZM80.7004 75.6572C80.1404 75.6572 79.593 75.8233 79.1274 76.1344C78.6618 76.4455 78.299 76.8877 78.0847 77.405C77.8704 77.9224 77.8143 78.4916 77.9236 79.0408C78.0328 79.5901 78.3024 80.0945 78.6984 80.4905C79.0944 80.8864 79.5988 81.1561 80.1481 81.2653C80.6973 81.3746 81.2665 81.3185 81.7839 81.1042C82.3012 80.8899 82.7434 80.5271 83.0545 80.0615C83.3656 79.5959 83.5317 79.0485 83.5317 78.4885C83.5309 77.7378 83.2324 77.0181 82.7016 76.4873C82.1708 75.9565 81.4511 75.658 80.7004 75.6572Z" fill="#62A851"/>
<path d="M85.9387 70.0468L85.6582 74.3486L85.8668 74.3622L86.1472 70.0604L85.9387 70.0468Z" fill="#DBB3A7"/>
<path d="M87.9027 79.035C88.4155 79.0043 88.9226 78.9458 89.4298 78.8706C89.3462 78.185 89.2793 77.6361 89.271 77.5469C89.2431 77.2849 88.2371 75.4931 88.2371 75.4931L87.9306 73.4505C87.6241 73.1718 86.632 72.9405 85.5981 74.3116C84.62 75.6074 85.6316 78.6281 85.7458 78.957C86.456 79.0985 87.1842 79.1249 87.9027 79.035Z" fill="#FFB9A9"/>
<path d="M86.7994 79.31C86.427 79.3108 86.0574 79.2467 85.707 79.1205L85.8129 78.8613C86.1853 78.9937 86.5805 79.0497 86.975 79.0257L86.9945 79.3044L86.7994 79.31Z" fill="#5254CF"/>
<path d="M85.6356 83.9852L85.418 84.1592L86.5073 85.5217L86.7249 85.3477L85.6356 83.9852Z" fill="#5254CF"/>
<path d="M87.4754 76.4091C86.9515 76.4091 86.7063 75.5898 86.5502 74.8708C86.3607 74.0097 87.8154 73.3521 87.8767 73.3242L87.9909 73.5778C87.6259 73.7394 86.7063 74.2801 86.8205 74.8095C87.0741 75.9771 87.3528 76.1304 87.4838 76.1304C87.7123 76.1304 87.9909 75.6957 88.1135 75.4337L88.3671 75.5508C88.3281 75.6344 87.9686 76.3868 87.4977 76.4091H87.4754Z" fill="#5254CF"/>
<path d="M84.3543 92.3642C82.791 91.5672 83.2396 89.388 83.2619 89.2988L83.5406 89.3573C83.5406 89.3769 83.1142 91.4195 84.488 92.1189L84.3543 92.3642Z" fill="#5254CF"/>
<path d="M76.7489 90.2381L76.5371 90.0597C76.7983 89.7555 77.136 89.5265 77.5152 89.3965L77.5877 89.6752C77.2646 89.7881 76.9758 89.9819 76.7489 90.2381Z" fill="#5254CF"/>
<path d="M77.2237 91.5049L76.9785 91.3739C77.0092 91.3182 77.7421 89.9583 78.7369 89.5068L78.8512 89.7604C77.9427 90.1729 77.2321 91.4937 77.2237 91.5049Z" fill="#5254CF"/>
<path d="M72.6406 83.1051L72.248 83.1553L72.2834 83.4317L72.6759 83.3815L72.6406 83.1051Z" fill="#5254CF"/>
<path d="M72.8253 86.0604L72.416 86.1582L72.4808 86.4292L72.89 86.3314L72.8253 86.0604Z" fill="#5254CF"/>
<path d="M51.1944 55.8587L51.9942 78.0907C44.9606 82.7918 32.011 82.9339 25.2422 78.0907L27.4214 53.9805L51.1944 55.8587Z" fill="#FFB9A9"/>
<path d="M56.5707 52.9465H56.3923C54.163 52.81 52.5049 50.1599 52.6944 47.0221C52.8867 43.8926 54.8597 41.4487 57.089 41.5909C58.1786 41.6577 59.1623 42.3182 59.8757 43.4496C60.5911 44.6799 60.9139 46.0994 60.8009 47.5181C60.6086 50.5639 58.7359 52.9465 56.5707 52.9465ZM52.9731 47.0332C52.792 50.0094 54.333 52.5369 56.4091 52.6623C58.4851 52.7877 60.3243 50.472 60.5083 47.493C60.6191 46.136 60.3149 44.7774 59.636 43.5973C58.9867 42.5467 58.0783 41.9253 57.0834 41.8723C55.0074 41.7497 53.1682 44.0654 52.9843 47.0416L52.9731 47.0332Z" fill="white"/>
<path d="M29.1023 32.0498L59.1788 34.973C59.1788 34.973 57.5068 52.1417 56.5538 60.2063C55.6007 68.2709 50.685 69.0428 50.685 69.0428C44.585 71.4031 28.2217 69.7367 26.8145 60.0391L29.1023 32.0498Z" fill="#FFB9A9"/>
<path d="M47.5658 50.926C46.7604 48.9447 46.8078 47.2811 47.6967 46.4674C48.2541 45.9658 49.0622 45.91 49.8648 46.3448L49.7338 46.59C49.0288 46.2194 48.3544 46.25 47.8862 46.6736C47.2676 47.2309 46.9276 48.6242 47.8249 50.8146L47.5658 50.926Z" fill="#5254CF"/>
<path d="M49.1928 51.457L48.942 51.3344C49.2346 50.7436 49.2708 50.2587 49.0534 49.8881C48.5964 49.119 47.178 49.0521 47.1641 49.0521V48.7734C47.2282 48.7734 48.7469 48.8459 49.2819 49.746C49.5634 50.2002 49.5299 50.7771 49.1928 51.457Z" fill="#5254CF"/>
<path d="M28.1423 31.6536C27.3063 25.8963 30.6308 23.3382 34.4206 23.3159C34.4206 23.3159 55.042 20.9834 57.6586 21.3373C59.146 21.5387 60.5315 22.2053 61.6171 23.2417C62.7027 24.2782 63.4326 25.6315 63.7026 27.1079C63.9725 28.5843 63.7686 30.1083 63.12 31.4618C62.4713 32.8154 61.4113 33.9291 60.0914 34.6437C59.8167 34.8201 59.5255 34.9694 59.222 35.0895C58.798 35.2244 58.365 35.3287 57.9262 35.4016L57.6475 35.4406L57.536 35.4546H57.5026C56.9681 35.5175 56.43 35.5454 55.8919 35.5382L53.8047 50.9707C53.5567 52.7876 53.3811 54.2451 51.4054 53.9776L51.3775 48.7191C51.4695 47.6992 51.4722 46.0188 50.6167 45.3082C49.5021 44.3775 47.2895 44.5726 46.512 45.8154C44.7592 48.4098 47.465 53.7964 47.465 53.7964C47.465 53.7964 44.3997 60.1918 41.2229 62.1564C36.2905 64.4805 29.2402 63.8284 26.8242 60.4175C25.4281 47.5794 22.5132 35.3543 28.1423 31.6536Z" fill="#1D2F6F"/>
<path d="M51.4271 46.4026L51.4082 46.6807L60.8221 47.3208L60.841 47.0428L51.4271 46.4026Z" fill="white"/>
<path d="M55.9036 35.6481C55.8618 35.6481 51.6901 35.5617 47.5938 35.1465L47.6133 34.9375C51.7013 35.3527 55.8646 35.4391 55.9064 35.4391L55.9036 35.6481Z" fill="#8B5991"/>
<path d="M54.4154 33.8423C53.8432 33.8423 53.2432 33.8116 52.6152 33.7503L52.6347 33.5413C55.9564 33.8702 58.4338 33.3212 59.9943 31.9028C60.9672 31.0225 61.5564 29.796 61.6357 28.4863H61.8447C61.8092 29.1647 61.6403 29.8294 61.3477 30.4424C61.0551 31.0554 60.6444 31.6047 60.1392 32.0588C58.8295 33.2487 56.9095 33.8423 54.4154 33.8423Z" fill="#8B5991"/>
<path d="M53.885 50.4434C53.8627 51.2989 54.1637 52.5473 55.3452 52.6894C56.3261 52.851 56.7385 52.0736 57.4603 52.3327C58.6391 57.92 57.1816 69.1224 51.5776 68.749L51.416 53.9796L53.885 50.4434Z" fill="#1D2F6F"/>
<path d="M90.3819 101.634L90.6717 95.573L75.3311 94.96L75.2363 100.795L90.3819 101.634Z" fill="white"/>
<path d="M90.5676 135L90.8965 100.91L73.5383 99.1436L70.0605 135H90.5676Z" fill="#1D2F6F"/>
<path d="M76.2474 135L78.8418 97.8312C78.8418 97.8312 79.9564 85.8486 69.4173 82.8529L51.9895 78.096C40.9347 78.2911 28.6706 77.8341 24.5129 78.096L7.68703 83.9118C3.28131 85.5699 0.898712 88.5042 0.00976562 92.9796V104.486L2.37565 135H76.2474Z" fill="#1D2F6F"/>
<path d="M76.2474 135L78.8418 97.8312C78.8418 97.8312 79.9564 85.8486 69.4173 82.8529L51.9895 78.096C40.9347 78.2911 28.6706 77.8341 24.5129 78.096L7.68703 83.9118C3.28131 85.5699 0.898712 88.5042 0.00976562 92.9796V104.486L2.37565 135H76.2474Z" fill="#1D2F6F"/>
<path d="M25.6272 72.2129H52.0755L53.6054 78.5052H22.9688L25.6272 72.2129Z" fill="white"/>
<path d="M53.7408 101.28L65.6064 134.999H89.9646C87.4176 124.672 79.5091 92.6111 79.3753 92.0845C79.2519 91.6306 79.103 91.184 78.9294 90.7469V90.719C78.1662 88.8531 76.9826 87.1885 75.4707 85.8549C73.9588 84.5214 72.1594 83.5548 70.2128 83.0306C63.0037 81.0075 55.3375 84.9813 53.0915 91.8838C52.0714 94.9813 52.3116 98.3559 53.7603 101.278L53.7408 101.28Z" fill="#1D2F6F"/>
<path d="M67.3578 134.634L54.5392 103.852C53.0037 98.1787 53.3799 93.4804 55.6538 89.8716C58.7916 84.8919 64.5321 83.7856 64.5907 83.7744L64.6269 83.9806C64.5711 83.9806 58.917 85.0953 55.8294 89.9859C53.6 93.5417 53.2211 98.1843 54.737 103.785L67.5557 134.553L67.3578 134.634Z" fill="#8B5991"/>
<path d="M79.6521 92.8122L79.4492 92.8623L88.1061 127.922L88.309 127.872L79.6521 92.8122Z" fill="#8B5991"/>
<path d="M66.3687 135L60.8343 99.3115C60.8299 97.7127 60.1929 96.1807 59.0624 95.0503C57.9319 93.9198 56.3999 93.2827 54.8012 93.2783H1.43933C0.957615 93.2786 0.477675 93.3366 0.00976562 93.4511V129.006L0.0209123 135H66.3687Z" fill="#5254CF"/>
<path d="M59.5969 134.754C58.8055 130.228 58.1423 125.619 57.5013 121.16C56.3616 113.238 55.1828 105.045 53.2238 96.8577C52.7389 94.9209 50.8496 93.6196 48.166 93.3799L48.1827 93.1709C50.9694 93.4217 52.9201 94.7788 53.4272 96.8075C55.3779 105.006 56.5678 113.204 57.7076 121.132C58.3485 125.591 59.0117 130.195 59.8031 134.72L59.5969 134.754Z" fill="#5254CF"/>
</svg>
