<svg width="173" height="171" viewBox="0 0 173 171" fill="none" xmlns="http://www.w3.org/2000/svg">
<path d="M144.252 47.5596C144.252 47.5596 145.467 44.049 149.119 43.9586C152.771 43.8682 151.458 46.1208 155.295 45.7591C159.131 45.3974 157.728 41.077 163.719 40.1768C169.71 39.2766 172.238 47.5596 172.238 47.5596H144.252Z" fill="white"/>
<path d="M80.9551 5.56661C80.9551 5.56661 81.8632 2.9445 84.5875 2.87767C87.3118 2.81084 86.3369 4.48946 89.2027 4.22214C92.0685 3.95482 91.0189 0.723383 95.4926 0.0511504C99.9663 -0.621083 101.853 5.55481 101.853 5.55481L80.9551 5.56661Z" fill="white"/>
<path d="M0.40625 32.0216C0.40625 32.0216 1.22001 29.6628 3.65734 29.6157C6.09468 29.5685 5.22982 31.0584 7.78116 30.8186C10.3325 30.5788 9.40474 27.6737 13.4028 27.0919C17.4008 26.51 19.0873 32.0216 19.0873 32.0216H0.40625Z" fill="white"/>
<path d="M95.1003 16.8516H39.3679C33.1867 16.8516 28.1758 21.8624 28.1758 28.0437V158.803C28.1758 164.984 33.1867 169.995 39.3679 169.995H95.1003C101.282 169.995 106.292 164.984 106.292 158.803V28.0437C106.292 21.8624 101.282 16.8516 95.1003 16.8516Z" fill="#E2EDFD"/>
<path d="M95.1043 20.6884C97.0554 20.6905 98.926 21.4665 100.306 22.8462C101.685 24.2258 102.461 26.0964 102.463 28.0476V158.807C102.461 160.758 101.685 162.629 100.306 164.008C98.926 165.388 97.0554 166.164 95.1043 166.166H39.3679C37.4167 166.164 35.5461 165.388 34.1664 164.008C32.7868 162.629 32.0108 160.758 32.0087 158.807V28.0437C32.0118 26.0932 32.7883 24.2236 34.1678 22.8448C35.5474 21.466 37.4174 20.6905 39.3679 20.6884H95.1043ZM95.1043 16.8555H39.3679C36.3995 16.8555 33.5528 18.0347 31.4539 20.1336C29.3549 22.2325 28.1758 25.0793 28.1758 28.0476V158.807C28.1758 161.775 29.3549 164.622 31.4539 166.721C33.5528 168.82 36.3995 169.999 39.3679 169.999H95.1043C98.0699 169.995 100.913 168.814 103.008 166.715C105.104 164.617 106.281 161.772 106.281 158.807V28.0437C106.281 26.5739 105.991 25.1185 105.429 23.7606C104.866 22.4027 104.042 21.1689 103.003 20.1297C101.963 19.0904 100.729 18.266 99.3716 17.7035C98.0137 17.1411 96.5583 16.8516 95.0885 16.8516L95.1043 16.8555Z" fill="#1D2F6F"/>
<path d="M84.6606 17.2383H49.8027V21.2953C49.8022 21.7229 49.8861 22.1464 50.0495 22.5415C50.2129 22.9367 50.4526 23.2957 50.755 23.5981C51.0573 23.9004 51.4164 24.1402 51.8115 24.3036C52.2067 24.467 52.6302 24.5508 53.0578 24.5503H81.4213C82.2818 24.5461 83.1057 24.2014 83.7128 23.5914C84.3198 22.9814 84.6606 22.1558 84.6606 21.2953V17.2383Z" fill="#1D2F6F"/>
<path d="M60.748 20.2803H74.1219" stroke="white" stroke-width="0.76" stroke-linecap="round" stroke-linejoin="round"/>
<path d="M81.1552 113.675H41.3284C39.6067 113.675 38.2109 115.071 38.2109 116.792V150.058C38.2109 151.78 39.6067 153.175 41.3284 153.175H81.1552C82.8769 153.175 84.2727 151.78 84.2727 150.058V116.792C84.2727 115.071 82.8769 113.675 81.1552 113.675Z" fill="#8BBDFA"/>
<path d="M55.0562 119.201H45.9004C45.2165 119.201 44.6621 119.756 44.6621 120.439V129.595C44.6621 130.279 45.2165 130.834 45.9004 130.834H55.0562C55.7401 130.834 56.2945 130.279 56.2945 129.595V120.439C56.2945 119.756 55.7401 119.201 55.0562 119.201Z" fill="white"/>
<path d="M60.2617 122.869H70.7737" stroke="#1D2F6F" stroke-width="1.3" stroke-linecap="round" stroke-linejoin="round"/>
<path d="M60.2617 126.611H77.213" stroke="#1D2F6F" stroke-width="1.3" stroke-linecap="round" stroke-linejoin="round"/>
<path d="M44.6621 135.673H56.2945" stroke="white" stroke-width="1.3" stroke-linecap="round" stroke-linejoin="round"/>
<path d="M44.6621 139.537H77.2163" stroke="white" stroke-width="1.3" stroke-linecap="round" stroke-linejoin="round"/>
<path d="M44.6621 143.796H77.2163" stroke="white" stroke-width="1.3" stroke-linecap="round" stroke-linejoin="round"/>
<path d="M20.9556 56.8968C22.1514 51.8854 19.0581 46.8535 14.0467 45.6577C9.0353 44.462 4.00339 47.5552 2.80765 52.5666C1.61192 57.5781 4.70514 62.61 9.71657 63.8057C14.728 65.0014 19.7599 61.9082 20.9556 56.8968Z" fill="#1D2F6F"/>
<path d="M8.12891 55.1784L11.0576 57.3484L16.0738 52.1436" stroke="white" stroke-width="2.14" stroke-linecap="round" stroke-linejoin="round"/>
<path d="M48.3283 79.4482H17.095C15.9682 79.4482 15.0547 80.3617 15.0547 81.4885V103.248C15.0547 104.374 15.9682 105.288 17.095 105.288H48.3283C49.4551 105.288 50.3685 104.374 50.3685 103.248V81.4885C50.3685 80.3617 49.4551 79.4482 48.3283 79.4482Z" fill="#007AFD"/>
<path d="M38.1587 90.2732C38.1602 89.4151 37.9639 88.5683 37.5848 87.7986C37.2057 87.0288 36.6542 86.3569 35.9732 85.835C35.2921 85.3131 34.4998 84.9554 33.658 84.7897C32.8161 84.6239 31.9473 84.6546 31.1193 84.8793C30.2912 85.104 29.5261 85.5167 28.8836 86.0853C28.241 86.654 27.7383 87.3631 27.4144 88.1577C27.0906 88.9523 26.9545 89.8108 27.0166 90.6666C27.0787 91.5224 27.3373 92.3523 27.7725 93.0918C27.984 93.4521 28.2359 93.7871 28.5233 94.0903L32.5685 99.4446L36.6058 94.0943C36.8962 93.7878 37.152 93.4503 37.3685 93.0879C37.8792 92.2373 38.1521 91.2652 38.1587 90.2732ZM32.5803 92.7026C32.0942 92.7034 31.6188 92.56 31.2142 92.2905C30.8096 92.021 30.4941 91.6375 30.3075 91.1886C30.121 90.7397 30.0717 90.2456 30.1661 89.7687C30.2605 89.2918 30.4942 88.8537 30.8376 88.5097C31.1811 88.1657 31.6189 87.9313 32.0956 87.8361C32.5723 87.741 33.0665 87.7894 33.5157 87.9753C33.9649 88.1611 34.3489 88.4761 34.619 88.8802C34.8892 89.2843 35.0334 89.7595 35.0334 90.2456C35.0323 90.8959 34.7735 91.5192 34.3137 91.9791C33.8539 92.4389 33.2306 92.6977 32.5803 92.6987V92.7026Z" fill="white"/>
<path d="M94.1564 36.1484H40.2913C38.5696 36.1484 37.1738 37.5442 37.1738 39.2659V72.5316C37.1738 74.2533 38.5696 75.649 40.2913 75.649H94.1564C95.8781 75.649 97.2738 74.2533 97.2738 72.5316V39.2659C97.2738 37.5442 95.8781 36.1484 94.1564 36.1484Z" fill="white"/>
<path d="M51.2277 45.5654H43.2002C42.601 45.5654 42.1152 46.0512 42.1152 46.6504V54.6779C42.1152 55.2772 42.601 55.7629 43.2002 55.7629H51.2277C51.827 55.7629 52.3127 55.2772 52.3127 54.6779V46.6504C52.3127 46.0512 51.827 45.5654 51.2277 45.5654Z" fill="#8BBDFA"/>
<path d="M64.2238 45.5654H56.1963C55.5971 45.5654 55.1113 46.0512 55.1113 46.6504V54.6779C55.1113 55.2772 55.5971 55.7629 56.1963 55.7629H64.2238C64.8231 55.7629 65.3088 55.2772 65.3088 54.6779V46.6504C65.3088 46.0512 64.8231 45.5654 64.2238 45.5654Z" fill="#8BBDFA"/>
<path d="M77.2121 45.5654H69.1846C68.5854 45.5654 68.0996 46.0512 68.0996 46.6504V54.6779C68.0996 55.2772 68.5854 55.7629 69.1846 55.7629H77.2121C77.8113 55.7629 78.2971 55.2772 78.2971 54.6779V46.6504C78.2971 46.0512 77.8113 45.5654 77.2121 45.5654Z" fill="#8BBDFA"/>
<path d="M90.2062 45.5654H82.1788C81.5795 45.5654 81.0938 46.0512 81.0938 46.6504V54.6779C81.0938 55.2772 81.5795 55.7629 82.1788 55.7629H90.2062C90.8055 55.7629 91.2913 55.2772 91.2913 54.6779V46.6504C91.2913 46.0512 90.8055 45.5654 90.2062 45.5654Z" fill="#1D2F6F"/>
<path d="M51.2277 59.3213H43.2002C42.601 59.3213 42.1152 59.8071 42.1152 60.4063V68.4338C42.1152 69.033 42.601 69.5188 43.2002 69.5188H51.2277C51.827 69.5188 52.3127 69.033 52.3127 68.4338V60.4063C52.3127 59.8071 51.827 59.3213 51.2277 59.3213Z" fill="#8BBDFA"/>
<path d="M64.2238 59.3213H56.1963C55.5971 59.3213 55.1113 59.8071 55.1113 60.4063V68.4338C55.1113 69.033 55.5971 69.5188 56.1963 69.5188H64.2238C64.8231 69.5188 65.3088 69.033 65.3088 68.4338V60.4063C65.3088 59.8071 64.8231 59.3213 64.2238 59.3213Z" fill="#8BBDFA"/>
<path d="M77.2121 59.3213H69.1846C68.5854 59.3213 68.0996 59.8071 68.0996 60.4063V68.4338C68.0996 69.033 68.5854 69.5188 69.1846 69.5188H77.2121C77.8113 69.5188 78.2971 69.033 78.2971 68.4338V60.4063C78.2971 59.8071 77.8113 59.3213 77.2121 59.3213Z" fill="#8BBDFA"/>
<path d="M90.2062 59.3213H82.1788C81.5795 59.3213 81.0938 59.8071 81.0938 60.4063V68.4338C81.0938 69.033 81.5795 69.5188 82.1788 69.5188H90.2062C90.8055 69.5188 91.2913 69.033 91.2913 68.4338V60.4063C91.2913 59.8071 90.8055 59.3213 90.2062 59.3213Z" fill="#8BBDFA"/>
<path d="M95.2384 79.4482H59.9993C58.8724 79.4482 57.959 80.3617 57.959 81.4885V103.248C57.959 104.374 58.8724 105.288 59.9993 105.288H95.2384C96.3653 105.288 97.2787 104.374 97.2787 103.248V81.4885C97.2787 80.3617 96.3653 79.4482 95.2384 79.4482Z" fill="white"/>
<path d="M91.9321 82.3818H63.9971C63.3979 82.3818 62.9121 82.8676 62.9121 83.4668V87.17C62.9121 87.7693 63.3979 88.255 63.9971 88.255H91.9321C92.5314 88.255 93.0172 87.7693 93.0172 87.17V83.4668C93.0172 82.8676 92.5314 82.3818 91.9321 82.3818Z" fill="#8BBDFA"/>
<path d="M63.3066 92.1025H77.0265" stroke="#1D2F6F" stroke-width="1.3" stroke-linecap="round" stroke-linejoin="round"/>
<path d="M63.3066 95.4463H92.6254" stroke="#1D2F6F" stroke-width="1.3" stroke-linecap="round" stroke-linejoin="round"/>
<path d="M63.3066 99.1289H92.6254" stroke="#1D2F6F" stroke-width="1.3" stroke-linecap="round" stroke-linejoin="round"/>
<path d="M114.136 122.084H93.7052C92.3352 122.084 91.2246 123.195 91.2246 124.565V142.282C91.2246 143.652 92.3352 144.763 93.7052 144.763H114.136C115.506 144.763 116.616 143.652 116.616 142.282V124.565C116.616 123.195 115.506 122.084 114.136 122.084Z" fill="#1D2F6F"/>
<path d="M108.948 132.432L108.115 132.287C108.017 131.924 107.873 131.575 107.686 131.249L108.17 130.553C108.257 130.43 108.298 130.28 108.285 130.13C108.272 129.979 108.206 129.838 108.099 129.732L107.6 129.232C107.491 129.128 107.35 129.065 107.199 129.055C107.049 129.044 106.9 129.086 106.778 129.173L106.086 129.661C105.76 129.472 105.409 129.327 105.044 129.232L104.903 128.379C104.878 128.233 104.803 128.099 104.69 128.003C104.577 127.906 104.434 127.851 104.286 127.849H103.562C103.411 127.847 103.264 127.899 103.149 127.997C103.033 128.094 102.957 128.23 102.933 128.379L102.784 129.209C102.421 129.308 102.072 129.453 101.746 129.641L101.054 129.189C100.931 129.104 100.781 129.065 100.632 129.078C100.482 129.092 100.343 129.158 100.237 129.264L99.7373 129.763C99.6307 129.87 99.5649 130.01 99.5513 130.16C99.5376 130.311 99.577 130.461 99.6626 130.585L100.15 131.277C99.9613 131.602 99.8172 131.951 99.7215 132.315L98.8881 132.46C98.7396 132.487 98.6051 132.565 98.5081 132.68C98.4111 132.796 98.3578 132.942 98.3574 133.093V133.801C98.3578 133.951 98.4111 134.097 98.5081 134.213C98.6051 134.329 98.7396 134.407 98.8881 134.433L99.7215 134.579C99.8172 134.942 99.9613 135.292 100.15 135.617L99.6626 136.313C99.5773 136.436 99.5381 136.585 99.5518 136.735C99.5654 136.884 99.631 137.024 99.7373 137.13L100.237 137.629C100.343 137.736 100.482 137.801 100.632 137.815C100.781 137.829 100.931 137.789 101.054 137.704L101.75 137.217C102.076 137.405 102.425 137.55 102.788 137.649L102.933 138.479C102.96 138.627 103.038 138.762 103.154 138.859C103.269 138.956 103.415 139.009 103.566 139.009H104.286C104.436 139.01 104.582 138.956 104.697 138.859C104.813 138.762 104.89 138.627 104.915 138.479L105.064 137.649C105.427 137.55 105.776 137.405 106.102 137.217L106.778 137.692C106.902 137.778 107.052 137.818 107.202 137.806C107.352 137.793 107.493 137.728 107.6 137.622L108.099 137.122C108.206 137.016 108.272 136.875 108.285 136.725C108.298 136.574 108.257 136.424 108.17 136.301L107.686 135.601C107.872 135.274 108.016 134.926 108.115 134.563L108.948 134.418C109.097 134.392 109.232 134.314 109.329 134.198C109.426 134.082 109.479 133.936 109.479 133.785V133.077C109.483 132.924 109.431 132.774 109.334 132.656C109.236 132.537 109.099 132.458 108.948 132.432ZM103.92 135.632C103.482 135.632 103.053 135.502 102.688 135.259C102.324 135.015 102.039 134.669 101.872 134.264C101.704 133.859 101.66 133.413 101.745 132.983C101.831 132.553 102.042 132.158 102.352 131.847C102.662 131.537 103.057 131.326 103.487 131.241C103.918 131.155 104.363 131.199 104.769 131.367C105.174 131.535 105.52 131.819 105.764 132.183C106.007 132.548 106.137 132.977 106.137 133.415C106.136 134.003 105.902 134.566 105.487 134.982C105.071 135.397 104.508 135.631 103.92 135.632Z" fill="white"/>
<path d="M6.19531 170H167.35" stroke="#1D2F6F" stroke-width="0.75" stroke-miterlimit="10"/>
<path d="M137.918 24.3691H153.765C155.641 24.3691 157.441 23.6236 158.768 22.2965C160.095 20.9695 160.841 19.1696 160.841 17.2929C160.841 15.4162 160.095 13.6164 158.768 12.2893C157.441 10.9623 155.641 10.2168 153.765 10.2168H137.918C136.041 10.2168 134.241 10.9623 132.914 12.2893C131.587 13.6164 130.842 15.4162 130.842 17.2929C130.842 19.1696 131.587 20.9695 132.914 22.2965C134.241 23.6236 136.041 24.3691 137.918 24.3691Z" fill="#8BBDFA"/>
<path d="M143.49 22.8051L138.348 27.8527L137.416 22.4316L143.49 22.8051Z" fill="#8BBDFA"/>
<path d="M143.459 15.0244C143.104 14.6773 142.626 14.4852 142.13 14.4903C141.634 14.4955 141.16 14.6975 140.813 15.0519L140.337 15.5394L139.846 15.0558C139.49 14.7196 139.017 14.5362 138.527 14.545C138.038 14.5537 137.571 14.7539 137.228 15.1026C136.884 15.4513 136.691 15.9208 136.689 16.4103C136.688 16.8998 136.878 17.3704 137.22 17.7212L139.04 19.5099C139.395 19.8564 139.873 20.0478 140.369 20.0419C140.865 20.036 141.339 19.8333 141.686 19.4784L143.474 17.6504C143.817 17.2983 144.007 16.8255 144.004 16.3342C144.002 15.8428 143.805 15.3724 143.459 15.0244Z" fill="white"/>
<path d="M147.041 15.6543H154.329" stroke="white" stroke-width="1.02" stroke-linecap="round" stroke-linejoin="round"/>
<path d="M147.041 17.6777H150.886" stroke="white" stroke-width="1.02" stroke-linecap="round" stroke-linejoin="round"/>
<path d="M123.111 165.102L118.468 167.669C118.214 167.813 118.015 168.036 117.899 168.304C117.783 168.573 117.758 168.871 117.827 169.155C117.949 169.619 118.346 169.976 119.4 169.996C121.703 170.043 131.901 168.345 131.901 168.345V169.811L136.669 169.835C136.669 169.835 136.968 162.9 135.525 162.02L123.111 165.102Z" fill="#1D2F6F"/>
<path d="M129.354 160.003L123.111 165.114C123.111 165.114 123.898 167.417 127.471 165.88C131.044 164.343 135.491 162.032 135.491 162.032L134.842 159.362L129.354 160.003Z" fill="#F8C694"/>
<path d="M134.84 159.351L135.488 140.843L129.297 140.34V162.02L134.84 159.351Z" fill="#F8C694"/>
<path d="M123.818 85.2703L126.405 157.345H138.415L139.028 79.4482L123.818 85.2703Z" fill="#1D2F6F"/>
<path d="M125.15 84.0083L131.204 119.126C131.376 120.144 131.767 121.114 132.351 121.966C132.935 122.819 133.698 123.534 134.586 124.062C135.474 124.59 136.466 124.919 137.494 125.025C138.521 125.131 139.56 125.012 140.537 124.676C142.024 124.168 143.302 123.181 144.17 121.871C145.038 120.56 145.449 118.999 145.337 117.431L144.181 101.479C143.596 96.0653 144.94 89.0638 139.024 79.4639L125.15 84.0083Z" fill="#1D2F6F"/>
<path d="M156.918 163.333L154.328 167.983C154.189 168.24 154.137 168.534 154.181 168.822C154.225 169.11 154.362 169.376 154.571 169.579C154.921 169.91 155.448 170.004 156.34 169.469C158.306 168.29 166.062 161.434 166.062 161.434L166.849 162.676L170.902 160.168C170.902 160.168 167.474 154.134 165.791 154.149L156.918 163.333Z" fill="#1D2F6F"/>
<path d="M159.509 155.698L156.918 163.332C156.918 163.332 158.821 164.861 161.022 161.669C163.224 158.477 165.775 154.149 165.775 154.149L163.809 152.234L159.509 155.698Z" fill="#F8C694"/>
<path d="M163.813 152.236L154.547 136.2L149.031 139.058L160.534 157.436L163.813 152.236Z" fill="#F8C694"/>
<path d="M132.102 121.578L154.419 154.86L164.817 148.193L143.25 111.982L132.102 121.578Z" fill="#1D2F6F"/>
<path d="M115.454 26.9801C115.454 26.9801 110.497 26.3354 109.848 31.0293C109.368 34.5241 110.976 36.242 109.714 39.0528C108.452 41.8636 110.819 44.3756 110.819 44.3756C110.819 44.3756 116.692 47.1039 123.076 41.5255L115.454 26.9801Z" fill="#1D2F6F"/>
<path d="M117.379 42.6773L120.072 49.667L125.701 48.1692L120.5 38.1211L117.379 42.6773Z" fill="#F8C694"/>
<path d="M118.662 46.0188L119.818 40.8965L117.719 43.5658L118.662 46.0188Z" fill="#1D2F6F"/>
<path d="M114.824 28.0292C114.824 28.0292 111.482 28.7329 111.482 32.9747C111.482 32.9747 111.321 34.5943 111.534 39.013C111.683 42.1579 113.161 44.3122 116.098 44.0095C117.521 43.868 119.015 42.9953 120.347 41.8709L122.219 39.9643C126.543 34.6847 122.034 26.7319 115.315 27.9309C115.154 27.9585 114.989 27.9899 114.824 28.0292Z" fill="#F8C694"/>
<path d="M111.747 36.5498L110.567 38.6294C110.528 38.6783 110.502 38.7368 110.493 38.7989C110.483 38.861 110.49 38.9245 110.512 38.9831C110.535 39.0417 110.573 39.0932 110.622 39.1326C110.671 39.1719 110.729 39.1977 110.791 39.2073L112.329 39.4078L111.747 36.5498Z" fill="#F8C694"/>
<path d="M119.645 35.3142C119.763 34.3511 120.431 27.6759 115.411 28.5369C115.249 28.5577 115.085 28.5229 114.946 28.4384C114.806 28.3538 114.7 28.2243 114.644 28.0713C114.587 27.9182 114.585 27.7506 114.636 27.596C114.688 27.4413 114.791 27.3087 114.927 27.2199C116.716 26.1034 119.554 25.3329 123.658 26.9172C125.325 27.558 127.621 29.7555 127.621 31.9137C127.621 36.5447 126.08 38.8955 123.364 41.2818C123.331 41.3104 123.292 41.3312 123.25 41.3425C123.207 41.3538 123.163 41.3553 123.12 41.347C123.078 41.3386 123.037 41.3206 123.002 41.2943C122.968 41.2681 122.939 41.2342 122.919 41.1953L121.17 37.8145V37.7791C120.977 37.1658 119.991 35.8724 119.731 35.5186C119.702 35.4933 119.68 35.4617 119.665 35.4263C119.65 35.3909 119.643 35.3526 119.645 35.3142Z" fill="#1D2F6F"/>
<path d="M116.297 26.8961C110.007 29.7974 119.21 36.7005 119.21 36.7005L121.804 31.59C121.804 31.59 117.346 26.4126 116.297 26.8961Z" fill="#1D2F6F"/>
<path d="M112.127 32.6721L115.453 33.8004C115.034 33.0975 114.425 32.5277 113.695 32.1572C112.111 31.3866 112.127 32.6721 112.127 32.6721Z" fill="#1D2F6F"/>
<path d="M112.827 34.9443C113.141 35.0159 113.423 35.187 113.631 35.4322C113.84 35.6774 113.963 35.9834 113.983 36.3045C114.022 37.421 112.804 37.3463 112.804 37.3463C112.804 37.3463 111.758 35.994 112.827 34.9443Z" fill="white"/>
<path d="M113.051 34.6562C113.051 34.6562 113.919 36.272 112.807 37.3452L112.182 37.2862L112.15 35.5054L113.051 34.6562Z" fill="#1D2F6F"/>
<path d="M112.571 34.666C112.759 34.6789 112.943 34.7227 113.117 34.7957C113.287 34.8625 113.444 34.9582 113.581 35.0788C113.717 35.1967 113.829 35.3394 113.911 35.4994C113.99 35.6548 114.046 35.8201 114.08 35.9908C114.082 36.0065 114.079 36.0224 114.07 36.0357C114.062 36.049 114.049 36.0589 114.034 36.0637C114.019 36.0684 114.003 36.0676 113.988 36.0615C113.973 36.0553 113.962 36.0442 113.954 36.0301C113.902 35.8818 113.829 35.7415 113.738 35.6134C113.651 35.4908 113.542 35.3855 113.416 35.3029C113.295 35.2237 113.162 35.1652 113.023 35.1299C112.884 35.094 112.741 35.0807 112.598 35.0906C112.571 35.0933 112.544 35.0905 112.517 35.0824C112.491 35.0743 112.467 35.0611 112.446 35.0435C112.425 35.0259 112.408 35.0043 112.396 34.98C112.383 34.9557 112.376 34.9291 112.374 34.9019C112.371 34.8745 112.374 34.8469 112.382 34.8205C112.39 34.7942 112.403 34.7698 112.421 34.7486C112.438 34.7274 112.46 34.7098 112.484 34.697C112.509 34.6842 112.535 34.6763 112.563 34.6739L112.571 34.666Z" fill="#1D2F6F"/>
<path d="M111.737 39.9952C111.656 40.0007 111.579 40.0349 111.521 40.0916C111.463 40.1483 111.427 40.2238 111.419 40.3046C111.412 40.3855 111.433 40.4664 111.48 40.5328C111.527 40.5993 111.595 40.647 111.674 40.6675C111.674 40.6675 111.194 41.1589 111.922 41.324C112.649 41.4891 113.337 40.239 113.337 40.239C112.448 40.4355 112.264 39.9127 111.737 39.9952Z" fill="#1D2F6F"/>
<path d="M120.114 38.1466C120.341 40.1045 120.362 42.081 120.177 44.0433C120.177 44.0433 128.118 46.5947 131.726 37.5608C131.726 37.5608 129.423 36.6724 128.715 34.695C128.007 32.7176 128.715 25.8223 119.438 26.0464C119.438 26.0188 119.669 34.9937 120.114 38.1466Z" fill="#1D2F6F"/>
<path d="M123.161 36.6429C123.214 37.0627 123.141 37.4886 122.951 37.8669C122.762 38.2452 122.464 38.5589 122.097 38.7681C121.729 38.9774 121.308 39.0729 120.886 39.0426C120.464 39.0123 120.06 38.8575 119.726 38.5978C119.392 38.3381 119.143 37.9851 119.009 37.5836C118.876 37.1821 118.865 36.7501 118.977 36.3422C119.089 35.9343 119.32 35.5688 119.64 35.2921C119.96 35.0153 120.355 34.8397 120.775 34.7874C121.053 34.7521 121.336 34.7722 121.607 34.8465C121.878 34.9207 122.131 35.0477 122.353 35.22C122.574 35.3924 122.76 35.6068 122.899 35.8509C123.037 36.0951 123.126 36.3642 123.161 36.6429Z" fill="#F8C694"/>
<path d="M120.113 37.8133C120.113 37.8133 120.196 36.1857 121.536 36.1543" stroke="#1D2F6F" stroke-width="0.51" stroke-linecap="round" stroke-linejoin="round"/>
<path d="M133.931 53.5352L147.093 64.1926C147.537 64.575 147.9 65.0439 148.157 65.5707C148.415 66.0976 148.563 66.6713 148.592 67.2571C148.621 67.8429 148.531 68.4285 148.326 68.9783C148.122 69.528 147.808 70.0304 147.403 70.455C146.646 71.2407 145.621 71.7114 144.531 71.7726C143.442 71.8338 142.37 71.4811 141.53 70.7852L127.248 59.4712L133.931 53.5352Z" fill="#F8C694"/>
<path d="M141.828 57.4501C141.828 57.4501 141.27 61.6918 133.872 66.5626L123.824 59.0933C123.16 58.6006 122.607 57.9749 122.198 57.2564C121.79 56.5378 121.536 55.742 121.452 54.9197C121.369 54.0975 121.457 53.2668 121.713 52.4808C121.968 51.6947 122.384 50.9705 122.935 50.3543C123.871 49.3086 125.147 48.6272 126.536 48.4301C127.926 48.233 129.34 48.533 130.53 49.2771L141.828 57.4501Z" fill="#097BCC"/>
<path d="M141.588 70.9347L154.636 87.7051L157.84 83.9548L148.078 65.3249C147.704 64.8233 147.225 64.4095 146.674 64.1123C146.123 63.8152 145.514 63.6418 144.889 63.6044C144.264 63.5669 143.639 63.6663 143.057 63.8956C142.474 64.1249 141.949 64.4785 141.517 64.9317C140.743 65.7436 140.317 66.8259 140.33 67.9476C140.344 69.0693 140.795 70.1413 141.588 70.9347Z" fill="#F8C694"/>
<path d="M153.877 86.9937L153.74 87.835C153.562 88.9626 153.65 90.116 153.995 91.204L154.609 93.1224C154.645 93.2276 154.704 93.3238 154.78 93.4047C154.856 93.4856 154.949 93.5493 155.052 93.5917C155.155 93.6341 155.266 93.6541 155.377 93.6504C155.488 93.6468 155.598 93.6196 155.698 93.5706C155.874 93.4809 156.019 93.3404 156.114 93.1672C156.209 92.9941 156.251 92.7963 156.232 92.5996L156.032 90.4767L160.277 96.4836C160.324 96.5545 160.386 96.6145 160.458 96.6596C160.53 96.7048 160.611 96.7339 160.695 96.7451C160.779 96.7562 160.865 96.7492 160.946 96.7244C161.027 96.6997 161.102 96.6578 161.166 96.6015L161.351 96.4443C161.454 96.353 161.523 96.2291 161.546 96.0931C161.569 95.9571 161.544 95.8174 161.476 95.6973L158.764 91.5539L162.538 95.8782C162.589 95.9458 162.654 96.0017 162.728 96.0421C162.803 96.0825 162.885 96.1065 162.97 96.1125C163.054 96.1184 163.139 96.1062 163.219 96.0766C163.298 96.0471 163.37 96.0009 163.43 95.9411L163.556 95.8153C163.659 95.7133 163.721 95.5776 163.732 95.4332C163.743 95.2887 163.701 95.1452 163.615 95.029L160.494 91.0153L163.532 93.543C163.6 93.6019 163.679 93.645 163.765 93.6693C163.851 93.6935 163.942 93.6983 164.03 93.6832C164.118 93.6681 164.202 93.6336 164.275 93.5822C164.348 93.5307 164.408 93.4637 164.452 93.3858L164.488 93.319C164.55 93.2076 164.575 93.0789 164.559 92.9521C164.543 92.8253 164.486 92.7072 164.397 92.6153L161.429 89.7612L163.293 90.8777C163.371 90.9417 163.465 90.9847 163.564 91.0026C163.664 91.0206 163.767 91.0129 163.863 90.9802C163.959 90.9476 164.045 90.8911 164.113 90.8161C164.181 90.7411 164.229 90.65 164.252 90.5514C164.277 90.4512 164.275 90.3463 164.246 90.247C164.218 90.1477 164.164 90.0575 164.091 89.9853L156.515 82.9092L154.966 84.6821C154.395 85.3361 154.018 86.1367 153.877 86.9937Z" fill="#F8C694"/>
<path d="M123.876 47.9577C123.876 47.9577 118.703 47.4545 118.636 56.799C118.569 66.1434 121.521 70.5817 123.817 85.2726C123.817 85.2726 132.588 84.1993 139.023 79.4505C139.023 79.4505 139.424 45.0408 123.876 47.9577Z" fill="#007AFD"/>
<path d="M122.829 60.4726L110.603 72.1875C110.168 72.5804 109.657 72.8806 109.103 73.07C108.548 73.2594 107.96 73.3339 107.375 73.289C106.791 73.2442 106.221 73.0809 105.702 72.8091C105.182 72.5372 104.723 72.1626 104.353 71.7079C103.668 70.858 103.331 69.7808 103.407 68.6922C103.484 67.6037 103.969 66.5844 104.766 65.8386L117.794 53.0977L122.829 60.4726Z" fill="#F8C694"/>
<path d="M119.496 67.8992C119.496 67.8992 115.231 67.7499 110.848 59.0501L119.449 49.9494C120.016 49.3486 120.703 48.8725 121.464 48.5516C122.226 48.2308 123.046 48.0721 123.872 48.0858C124.699 48.0995 125.513 48.2852 126.263 48.6311C127.014 48.977 127.684 49.4756 128.231 50.0949C129.161 51.1471 129.688 52.494 129.72 53.8975C129.753 55.3009 129.288 56.6707 128.408 57.7646L119.496 67.8992Z" fill="#007AFD"/>
<path d="M120.678 66.5542L126.559 59.8633" stroke="#1D2F6F" stroke-width="0.51" stroke-linecap="round" stroke-linejoin="round"/>
<path d="M110.381 65.9596L92.9501 52.7705L90.6621 56.3597L104.421 71.8289C104.816 72.2935 105.307 72.6664 105.86 72.9216C106.414 73.1767 107.016 73.3079 107.626 73.3061C108.235 73.3042 108.837 73.1693 109.389 72.9107C109.941 72.6522 110.43 72.2763 110.821 71.8092C111.529 70.9709 111.879 69.8884 111.797 68.7944C111.715 67.7005 111.206 66.6826 110.381 65.9596Z" fill="#F8C694"/>
<path d="M95.2792 56.4164C94.6227 58.6258 92.4881 58.5353 88.2974 57.3599C86.0803 56.7388 85.2744 55.1663 85.9387 52.957C86.0947 52.4315 86.3526 51.942 86.6979 51.5163C87.0431 51.0906 87.4689 50.7372 87.9508 50.4761C88.4327 50.2151 88.9614 50.0516 89.5065 49.995C90.0517 49.9384 90.6026 49.9897 91.1279 50.1462C93.3136 50.8066 95.9239 54.2071 95.2792 56.4164Z" fill="#F8C694"/>
<path d="M91.8746 50.4617L86.5479 47.3678C86.3788 47.2505 86.1705 47.2042 85.9677 47.2387C85.7648 47.2732 85.5836 47.3859 85.4629 47.5526C85.3602 47.6924 85.3144 47.8659 85.3348 48.0382C85.3553 48.2104 85.4404 48.3685 85.5729 48.4804L89.7086 51.9752L91.8746 50.4617Z" fill="#F8C694"/>
</svg>
